<?xml version="1.0" encoding="utf-8"?>
<!-- Generator: Adobe Illustrator 25.0.0, SVG Export Plug-In . SVG Version: 6.00 Build 0)  -->
<svg version="1.1" id="Capa_1" xmlns="http://www.w3.org/2000/svg" xmlns:xlink="http://www.w3.org/1999/xlink" x="0px" y="0px"
	 viewBox="0 0 512 512" style="enable-background:new 0 0 512 512;" xml:space="preserve">
<style type="text/css">
	.st0{fill:#FFFFFF;}
</style>
<g>
	<path class="st0" d="M512,285.9l-75.8-113.7h-61.9v-34.4h-79.9c-6.6-47.7-44.5-85.6-92.3-92.3V30h19.4V0h-68.9v30h19.4v15.5
		c-47.7,6.6-85.6,44.5-92.3,92.3H0v305.4h51.7c0,0.7-0.1,1.5-0.1,2.2c0,36.7,29.9,66.6,66.6,66.6s66.6-29.9,66.6-66.6
		c0-0.7,0-1.5-0.1-2.2h142.3c0,0.7-0.1,1.5-0.1,2.2c0,36.7,29.9,66.6,66.6,66.6s66.6-29.9,66.6-66.6c0-0.7,0-1.5-0.1-2.2H512V285.9z
		 M420.1,202.1l48.9,73.3h-94.7v-73.3L420.1,202.1z M187.1,74.4c43.2,0,78.3,35.1,78.3,78.3S230.3,231,187.1,231
		s-78.3-35.1-78.3-78.3S144,74.4,187.1,74.4L187.1,74.4z M79.9,167.7c7.3,52.6,52.6,93.3,107.3,93.3s99.9-40.7,107.3-93.3h49.9
		v142.1H30V167.7H79.9z M118.3,482c-20.2,0-36.6-16.4-36.6-36.6s16.4-36.6,36.6-36.6s36.6,16.4,36.6,36.6S138.5,482,118.3,482z
		 M176.6,413.1c-11.4-20.5-33.2-34.4-58.3-34.4S71.3,392.6,60,413.1H30v-73.3h314.3v60.9c-3.4,3.8-6.4,8-8.9,12.4H176.6z M393.7,482
		c-20.2,0-36.6-16.4-36.6-36.6s16.4-36.6,36.6-36.6s36.6,16.4,36.6,36.6S413.9,482,393.7,482z M452,413.1
		c-11.4-20.5-33.2-34.4-58.3-34.4c-6.8,0-13.3,1-19.4,2.9v-76.2H482v107.7L452,413.1L452,413.1z"/>
	<path class="st0" d="M103.3,430.4h30v30h-30L103.3,430.4z"/>
	<path class="st0" d="M378.7,430.4h30v30h-30V430.4z"/>
	<path class="st0" d="M240,137.7h-37.9V99.9h-30v67.9H240V137.7z"/>
</g>
</svg>
