<?xml version="1.0" encoding="utf-8"?>
<!-- Generator: Adobe Illustrator 25.0.0, SVG Export Plug-In . SVG Version: 6.00 Build 0)  -->
<svg version="1.1" id="Capa_1" xmlns="http://www.w3.org/2000/svg" xmlns:xlink="http://www.w3.org/1999/xlink" x="0px" y="0px"
	 viewBox="0 0 512 512" style="enable-background:new 0 0 512 512;" xml:space="preserve">
<style type="text/css">
	.st0{fill:#FF8D27;}
</style>
<path class="st0" d="M512,344.3h-34.4V0h-271v344.3h-41.1L143,206.6H98.9V49.4C98.9,22.2,76.7,0,49.4,0H0v30h49.4
	c10.7,0,19.4,8.7,19.4,19.4v393.7h38.4c-2.6,6-4,12.5-4,19.4c0,27.3,22.2,49.4,49.4,49.4s49.4-22.2,49.4-49.4c0-6.9-1.4-13.5-4-19.4
	h184.5c-2.6,6-4,12.5-4,19.4c0,27.3,22.2,49.4,49.4,49.4s49.4-22.2,49.4-49.4c0-6.9-1.4-13.5-4-19.4H512V344.3z M322.6,30h38.9v47.8
	l-19.4-11.2l-19.4,11.2L322.6,30L322.6,30z M236.6,30h56.1v99.7l49.4-28.5l49.4,28.5V30h56.1v142.1h-211L236.6,30z M361.5,202.1
	v47.8l-19.4-11.2l-19.4,11.2v-47.8H361.5z M236.6,202.1h56.1v99.7l49.4-28.5l49.4,28.5v-99.7h56.1v142.1h-211L236.6,202.1z
	 M117.5,236.6l17.5,107.7H98.9V236.6H117.5z M152.7,482c-10.7,0-19.4-8.7-19.4-19.4s8.7-19.4,19.4-19.4s19.4,8.7,19.4,19.4
	S163.4,482,152.7,482z M428.1,482c-10.7,0-19.4-8.7-19.4-19.4s8.7-19.4,19.4-19.4s19.4,8.7,19.4,19.4S438.9,482,428.1,482L428.1,482
	z M482,413.1H98.9v-38.9H482V413.1z"/>
</svg>
