<?xml version="1.0" encoding="utf-8"?>
<!-- Generator: Adobe Illustrator 25.0.0, SVG Export Plug-In . SVG Version: 6.00 Build 0)  -->
<svg version="1.1" id="Capa_1" xmlns="http://www.w3.org/2000/svg" xmlns:xlink="http://www.w3.org/1999/xlink" x="0px" y="0px"
	 viewBox="0 0 512 512" style="enable-background:new 0 0 512 512;" xml:space="preserve">
<style type="text/css">
	.st0{fill:#FFFFFF;}
</style>
<g>
	<path class="st0" d="M275.4,275.4h98.9v30h-98.9V275.4z"/>
	<path class="st0" d="M68.9,305.4h167.7V137.7H68.9L68.9,305.4z M98.9,167.7h38.9v29.1h30v-29.1h38.9v107.7H98.9V167.7z"/>
	<path class="st0" d="M512,118.3C512,53.1,458.9,0,393.7,0C346.1,0,305,28.2,286.3,68.9H0v374.3h172.1v19.4
		c0,10.7-8.7,19.4-19.4,19.4H91.5v30h260.1v-30h-61.2c-10.7,0-19.4-8.7-19.4-19.4v-19.4h172.1V225.7C483.7,207,512,165.9,512,118.3
		L512,118.3z M245,482h-46.8c2.6-6,4-12.5,4-19.4v-19.4H241v19.4C241,469.5,242.4,476,245,482L245,482z M30,413.1v-38.9h383.1v38.9
		H30z M413.1,344.3H30V98.9h247c-1,6.3-1.6,12.8-1.6,19.4c0,65.2,53.1,118.3,118.3,118.3c6.6,0,13.1-0.6,19.4-1.6L413.1,344.3
		L413.1,344.3z M393.7,206.6c-48.7,0-88.3-39.6-88.3-88.3S345,30,393.7,30S482,69.6,482,118.3S442.4,206.6,393.7,206.6z"/>
	<path class="st0" d="M383.8,125.4l-26.3-26.3l-21.2,21.2l47.5,47.5l67.4-67.4l-21.2-21.2L383.8,125.4z"/>
	<path class="st0" d="M275.4,206.6h30v30h-30V206.6z"/>
</g>
</svg>
