<?xml version="1.0" encoding="utf-8"?>
<!-- Generator: Adobe Illustrator 25.0.0, SVG Export Plug-In . SVG Version: 6.00 Build 0)  -->
<svg version="1.1" id="Capa_1" xmlns="http://www.w3.org/2000/svg" xmlns:xlink="http://www.w3.org/1999/xlink" x="0px" y="0px"
	 viewBox="0 0 512 512" style="enable-background:new 0 0 512 512;" xml:space="preserve">
<style type="text/css">
	.st0{fill:#FF8D27;}
</style>
<path class="st0" d="M439.9,259.4c2.1-12.4,3.2-25,3.2-37.9c0-59.2-23-114.8-64.9-156.7C336.4,23,280.8,0,221.6,0
	S106.7,23,64.9,64.9C23,106.7,0,162.4,0,221.6s23,114.8,64.9,156.7c41.8,41.8,97.5,64.9,156.7,64.9c12.8,0,25.5-1.1,37.9-3.2V512
	H512V259.4L439.9,259.4z M366.3,289.4h38.9v47.8L385.7,326l-19.4,11.2L366.3,289.4L366.3,289.4z M409.4,259.4h-48.8L337,212.2
	l-31.5-27.6v-25.7l25.6-25.6h30.3l26.1-7.4c16.3,28.2,25.7,60.9,25.7,95.7C413.1,234.5,411.8,247.2,409.4,259.4L409.4,259.4z
	 M30,221.6c0-43.4,14.5-83.4,38.9-115.5v21.5l68.9,34.4v18.9l-34.4,34.4v46.9l43.2,43.2h31.4l28.7,57.4v49.7
	C107.9,404.9,30,322.2,30,221.6z M236.6,412.6v-56.8l-40.2-80.3h-37.5l-25.6-25.6v-22l34.4-34.4v-49.9L98.9,109V74.6
	C132.1,46.8,174.9,30,221.6,30c59.4,0,112.6,27.2,147.8,69.8l-12.2,3.5h-38.6l-43.2,43.2v51.8l37.3,32.6l14.3,28.5h-67.6v150
	C252,410.9,244.3,411.9,236.6,412.6L236.6,412.6z M482,482H289.4V289.4h46.9v99.7l49.4-28.5l49.4,28.5v-99.7H482L482,482z"/>
</svg>
