<?xml version="1.0" encoding="utf-8"?>
<!-- Generator: Adobe Illustrator 25.0.0, SVG Export Plug-In . SVG Version: 6.00 Build 0)  -->
<svg version="1.1" id="Capa_1" xmlns="http://www.w3.org/2000/svg" xmlns:xlink="http://www.w3.org/1999/xlink" x="0px" y="0px"
	 viewBox="0 0 512 512" style="enable-background:new 0 0 512 512;" xml:space="preserve">
<style type="text/css">
	.st0{fill:#FFFFFF;}
</style>
<path class="st0" d="M434,396.6l-101.9-26l-5.2-39.7c16.9-16.8,28.4-39.5,31.7-64.9h5c32.4,0,58.8-26.4,58.8-58.8
	c0-28-19.7-51.5-46-57.4c1.5-7.5,0.8-15.2-2.1-22.3c-0.1-31.4-12.4-61-34.6-83.2c-18.8-18.8-42.7-30.4-68.6-33.7V0h-30v10.7
	c-58,7.4-103.1,57-103.3,116.9c-2.9,7.1-3.6,14.8-2.1,22.3c-26.3,5.9-46,29.3-46,57.4c0,32.4,26.4,58.8,58.8,58.8h5
	c3.2,25.4,14.8,48.1,31.7,64.9l-5.2,39.7L78,396.6C32.1,408.3,0,449.6,0,497v15h512v-15C512,449.6,479.9,408.3,434,396.6L434,396.6z
	 M165.4,145.2c-1.4-3.6,0-6.5,1-8c0.8-1.2,3.1-3.9,7.4-3.9h164.4c4.3,0,6.6,2.7,7.4,3.9c1,1.4,2.4,4.3,1,8c-5,12.9-14,19.8-26,19.8
	H191.4C179.4,164.9,170.5,158.1,165.4,145.2L165.4,145.2z M256,39.7c6.3,0,20.5,18.5,23.1,63.6h-46.3
	C235.5,58.2,249.7,39.7,256,39.7L256,39.7z M392.3,207.2c0,15.9-12.9,28.8-28.8,28.8h-4.1v-56.7c0.3-0.3,0.6-0.6,0.8-0.8h3.2
	C379.4,178.4,392.3,191.4,392.3,207.2L392.3,207.2z M340.8,103.4c-0.9-0.1-31.6-0.1-31.6-0.1c-1.1-19.8-4.2-37.4-9.3-51.9
	c6.7,3.9,13,8.6,18.6,14.2C329.1,76.3,336.7,89.2,340.8,103.4L340.8,103.4z M212.1,51.4c-5.1,14.5-8.3,32.2-9.3,51.9
	c0,0-30.8,0-31.6,0.1C177.6,81.2,192.5,62.7,212.1,51.4z M119.7,207.2c0-15.9,12.9-28.8,28.8-28.8h3.2c0.3,0.3,0.6,0.6,0.8,0.8V236
	h-4.1C132.6,236,119.7,223.1,119.7,207.2z M182.5,251.5v-57.2c2.9,0.4,5.8,0.7,8.9,0.7h129.2c3,0,6-0.2,8.9-0.7v57.2
	c0,43.7-33,79.2-73.5,79.2S182.5,295.2,182.5,251.5L182.5,251.5z M256,360.7c15.4,0,30-3.6,43.2-10l3.4,25.8L256,416.4l-46.6-39.9
	l3.4-25.8C226,357.1,240.6,360.7,256,360.7z M85.4,425.7l104.2-26.6L241,443v39H133.3v-27.4h-30V482H31.5
	C37.2,454.9,57.8,432.7,85.4,425.7L85.4,425.7z M408.7,482v-27.4h-30V482H271v-39l51.3-43.9l104.2,26.6
	c27.7,7.1,48.3,29.2,53.9,56.3L408.7,482z"/>
</svg>
