<?xml version="1.0" encoding="utf-8"?>
<!-- Generator: Adobe Illustrator 25.0.0, SVG Export Plug-In . SVG Version: 6.00 Build 0)  -->
<svg version="1.1" id="Capa_1" xmlns="http://www.w3.org/2000/svg" xmlns:xlink="http://www.w3.org/1999/xlink" x="0px" y="0px"
	 viewBox="0 0 512 512" style="enable-background:new 0 0 512 512;" xml:space="preserve">
<style type="text/css">
	.st0{fill:#FF8D27;}
</style>
<g>
	<path class="st0" d="M172.6,309.9h98.9v30h-98.9L172.6,309.9z"/>
	<path class="st0" d="M425.9,82.2V66.6C425.9,29.9,396,0,359.3,0H83.9C47.1,0,17.2,29.9,17.2,66.6s29.9,66.6,66.6,66.6h26L51.6,392
		v120h443.1V392.1L425.9,82.2z M47.2,66.6C47.2,46.4,63.7,30,83.9,30h219.8c-7,10.5-11,23.1-11,36.6c0,13.5,4,26.1,11,36.6H83.9
		C63.7,103.3,47.2,86.8,47.2,66.6L47.2,66.6z M359.3,133.3v-30c-20.2,0-36.6-16.4-36.6-36.6S339.1,30,359.3,30s36.6,16.4,36.6,36.6
		v15.6L330,378.7H85.4l55.2-245.4L359.3,133.3z M81.6,482v-73.3h245.4V482H81.6z M464.8,482H357.1v-86.6L410.9,153l53.9,242.4
		L464.8,482L464.8,482z"/>
</g>
</svg>
