<?xml version="1.0" encoding="utf-8"?>
<!-- Generator: Adobe Illustrator 25.0.0, SVG Export Plug-In . SVG Version: 6.00 Build 0)  -->
<svg version="1.1" id="레이어_1" xmlns="http://www.w3.org/2000/svg" xmlns:xlink="http://www.w3.org/1999/xlink" x="0px"
	 y="0px" viewBox="0 0 680.4 680.4" style="enable-background:new 0 0 680.4 680.4;" xml:space="preserve">
<style type="text/css">
	.st0{fill:#FFBB61;}
	.st1{fill:#DB785A;}
	.st2{fill:#B3450B;}
	.st3{fill:#FF6C1E;}
	.st4{fill:#FFEECF;}
	.st5{fill:#EEEEEE;}
	.st6{fill:#F9DD9D;}
	.st7{fill:#63312D;}
	.st8{fill:#FFC8BB;}
	.st9{fill:#F8F3F3;}
</style>
<circle class="st0" cx="341.5" cy="341.5" r="339"/>
<path class="st1" d="M533.5,498H198.8V218.5l114.6-68.8v-30.3h60.2c2.6,0,5.3,0.7,7.5,2.1L541,214.2c4.6,2.7,7.5,7.6,7.5,13V483
	C548.6,491.3,541.8,498,533.5,498z"/>
<path class="st2" d="M533.5,501.8H198.8c-2.1,0-3.8-1.7-3.8-3.8V218.5c0-1.3,0.7-2.5,1.8-3.2l112.8-67.7v-28.1
	c0-2.1,1.7-3.8,3.8-3.8h60.2c3.3,0,6.6,0.8,9.4,2.5l159.9,92.6c5.8,3.4,9.4,9.6,9.4,16.3V483C552.3,493.4,543.8,501.8,533.5,501.8z
	 M202.6,494.3h330.9c6.2,0,11.3-5.1,11.3-11.3V227.2c0-4.1-2.2-7.7-5.7-9.8l-159.9-92.6c-1.7-1-3.7-1.5-5.7-1.5h-56.4v26.5
	c0,1.3-0.7,2.5-1.8,3.2l-112.8,67.6V494.3L202.6,494.3z"/>
<path class="st3" d="M473.2,498H153.6c-8.3,0-15.1-6.7-15.1-15.1V227.2c0-5.4,2.8-10.4,7.5-13l159.8-92.6c4.7-2.7,10.5-2.7,15.1,0
	l159.8,92.6c4.6,2.7,7.5,7.6,7.5,13V483C488.3,491.3,481.5,498,473.2,498z"/>
<path class="st4" d="M153.6,491.6V235.9c0-5.4,2.8-10.4,7.5-13l159.8-92.7c4.4-2.5,9.9-2.6,14.5-0.3l-14.4-8.4
	c-4.7-2.7-10.5-2.7-15.1,0l-159.8,92.6c-4.6,2.7-7.5,7.6-7.5,13v255.8c0,8.3,6.7,15.1,15.1,15.1h1.5
	C154.2,496.1,153.6,494,153.6,491.6z"/>
<path class="st2" d="M473.2,501.8H153.6c-10.4,0-18.9-8.5-18.9-18.9V227.2c0-6.7,3.6-12.9,9.4-16.3L304,118.2
	c5.8-3.4,13.1-3.4,18.9,0l159.8,92.6c5.8,3.4,9.4,9.6,9.4,16.3V483C492,493.4,483.6,501.8,473.2,501.8z M313.4,123.2
	c-2,0-4,0.5-5.7,1.5l-159.8,92.6c-3.5,2-5.7,5.8-5.7,9.8V483c0,6.2,5.1,11.3,11.3,11.3h319.7c6.2,0,11.3-5.1,11.3-11.3V227.2
	c0-4.1-2.2-7.7-5.7-9.8L319,124.8C317.3,123.8,315.4,123.2,313.4,123.2z"/>
<path class="st5" d="M194.7,279.4h242.3V498H194.7V279.4z"/>
<path class="st2" d="M437.1,501.8H194.7c-2.1,0-3.8-1.7-3.8-3.8V279.4c0-2.1,1.7-3.8,3.8-3.8h242.3c2.1,0,3.8,1.7,3.8,3.8V498
	C440.8,500.1,439.2,501.8,437.1,501.8z M198.5,494.3h234.9V283.1H198.5L198.5,494.3L198.5,494.3z"/>
<path class="st2" d="M485.4,214.7h60.3v7.5h-60.3V214.7z"/>
<path class="st4" d="M194.7,279.4h242.3v32.3H194.7V279.4z"/>
<path class="st4" d="M194.7,311.6h242.3v32.3H194.7V311.6z"/>
<path class="st4" d="M194.7,343.8h242.3V376H194.7V343.8z"/>
<g>
	<path class="st2" d="M437.1,315.4H194.7c-2.1,0-3.8-1.7-3.8-3.8v-32.3c0-2.1,1.7-3.8,3.8-3.8h242.3c2.1,0,3.8,1.7,3.8,3.8v32.3
		C440.8,313.7,439.2,315.4,437.1,315.4z M198.5,307.8h234.9v-24.7H198.5L198.5,307.8L198.5,307.8z"/>
	<path class="st2" d="M437.1,347.6H194.7c-2.1,0-3.8-1.7-3.8-3.8v-32.3c0-2.1,1.7-3.8,3.8-3.8h242.3c2.1,0,3.8,1.7,3.8,3.8v32.3
		C440.8,345.9,439.2,347.6,437.1,347.6z M198.5,340h234.9v-24.7H198.5L198.5,340L198.5,340z"/>
	<path class="st2" d="M437.1,379.8H194.7c-2.1,0-3.8-1.7-3.8-3.8v-32.3c0-2.1,1.7-3.8,3.8-3.8h242.3c2.1,0,3.8,1.7,3.8,3.8V376
		C440.8,378.1,439.2,379.8,437.1,379.8z M198.5,372.3h234.9v-24.7H198.5L198.5,372.3L198.5,372.3z"/>
</g>
<path class="st6" d="M323.7,459.2h102.9v93.3H323.7V459.2z"/>
<path class="st7" d="M426.7,556.2h-103c-2.1,0-3.8-1.7-3.8-3.8v-93.2c0-2.1,1.7-3.8,3.8-3.8h102.9c2.1,0,3.8,1.7,3.8,3.8v93.2
	C430.5,554.6,428.8,556.2,426.7,556.2z M327.4,548.8h95.4V463h-95.4V548.8z"/>
<path class="st8" d="M295.8,459.2h102.9v93.3H295.8V459.2z"/>
<path class="st4" d="M310.9,474.3h87.8v-15.1H295.8v93.3h15.1V474.3z"/>
<path class="st2" d="M398.8,556.2H295.8c-2.1,0-3.8-1.7-3.8-3.8v-93.2c0-2.1,1.7-3.8,3.8-3.8h102.9c2.1,0,3.8,1.7,3.8,3.8v93.2
	C402.5,554.6,400.8,556.2,398.8,556.2z M299.6,548.8H395V463h-95.4V548.8z"/>
<path class="st9" d="M335.8,459.2h22.9v31h-22.9V459.2z"/>
<path class="st2" d="M358.8,494.1h-22.9c-2.1,0-3.8-1.7-3.8-3.8v-31c0-2.1,1.7-3.8,3.8-3.8h22.9c2.1,0,3.8,1.7,3.8,3.8v31
	C362.5,492.4,360.8,494.1,358.8,494.1z M339.6,486.6H355V463h-15.4V486.6z"/>
<path class="st8" d="M426.7,459.2h102.9v93.3H426.7V459.2z"/>
<path class="st2" d="M529.6,556.2H426.7c-2.1,0-3.8-1.7-3.8-3.8v-93.2c0-2.1,1.7-3.8,3.8-3.8h102.9c2.1,0,3.8,1.7,3.8,3.8v93.2
	C533.4,554.6,531.7,556.2,529.6,556.2z M430.5,548.8h95.4V463h-95.4V548.8z"/>
<path class="st8" d="M398.8,459.2h102.9v93.3H398.8V459.2z"/>
<path class="st4" d="M412.7,473.2h89v-14H398.8v93.3h14V473.2z"/>
<path class="st2" d="M501.7,556.2H398.8c-2.1,0-3.8-1.7-3.8-3.8v-93.2c0-2.1,1.7-3.8,3.8-3.8h102.9c2.1,0,3.8,1.7,3.8,3.8v93.2
	C505.4,554.6,503.7,556.2,501.7,556.2z M402.5,548.8h95.4V463h-95.4V548.8z"/>
<path class="st9" d="M438.8,459.2h22.9v31h-22.9V459.2z"/>
<path class="st2" d="M461.7,494.1h-22.9c-2.1,0-3.8-1.7-3.8-3.8v-31c0-2.1,1.7-3.8,3.8-3.8h22.9c2.1,0,3.8,1.7,3.8,3.8v31
	C465.4,492.4,463.7,494.1,461.7,494.1z M442.5,486.6h15.4V463h-15.4V486.6z"/>
<path class="st8" d="M401.2,366h102.9v93.2H401.2V366z"/>
<path class="st2" d="M504.2,463h-103c-2.1,0-3.8-1.7-3.8-3.8V366c0-2.1,1.7-3.8,3.8-3.8h102.9c2.1,0,3.8,1.7,3.8,3.8v93.2
	C507.9,461.3,506.3,463,504.2,463z M405,455.5h95.4v-85.7H405V455.5z"/>
<path class="st8" d="M373.4,366h102.9v93.2H373.4V366z"/>
<path class="st4" d="M387.2,379.9h89v-14H373.4v93.2h14L387.2,379.9L387.2,379.9z"/>
<path class="st2" d="M476.3,463H373.4c-2.1,0-3.8-1.7-3.8-3.8V366c0-2.1,1.7-3.8,3.8-3.8h102.9c2.1,0,3.8,1.7,3.8,3.8v93.2
	C480.1,461.3,478.4,463,476.3,463z M377.2,455.5h95.4v-85.7h-95.4V455.5z"/>
<path class="st9" d="M413.4,366h22.9v31h-22.9V366z"/>
<path class="st2" d="M436.3,400.9h-22.9c-2.1,0-3.8-1.7-3.8-3.8v-31c0-2.1,1.7-3.8,3.8-3.8h22.9c2.1,0,3.8,1.7,3.8,3.8v31
	C440.1,399.2,438.4,400.9,436.3,400.9z M417.2,393.3h15.4v-23.6h-15.4V393.3z"/>
</svg>
