<?xml version="1.0" encoding="utf-8"?>
<!-- Generator: Adobe Illustrator 25.0.0, SVG Export Plug-In . SVG Version: 6.00 Build 0)  -->
<svg version="1.1" id="레이어_1" xmlns="http://www.w3.org/2000/svg" xmlns:xlink="http://www.w3.org/1999/xlink" x="0px"
	 y="0px" viewBox="0 0 680.4 680.4" style="enable-background:new 0 0 680.4 680.4;" xml:space="preserve">
<style type="text/css">
	.st0{fill:#FFBB61;}
	.st1{fill:#DB785A;}
	.st2{fill:#B3450B;}
	.st3{fill:#FF6C1E;}
	.st4{fill:#FFEECF;}
	.st5{fill:#FFC8BB;}
	.st6{fill:#EEEEEE;}
	.st7{fill:#F9DD9D;}
	.st8{fill:#63312D;}
	.st9{fill:#F8F3F3;}
</style>
<circle class="st0" cx="340.2" cy="340.2" r="338.2"/>
<path class="st1" d="M166.8,511.4h378.8v42.3H166.8V511.4z"/>
<path class="st2" d="M545.6,557.7H166.8c-2.2,0-4-1.8-4-4v-42.3c0-2.2,1.8-4,4-4h378.8c2.2,0,4,1.8,4,4v42.3
	C549.6,555.9,547.8,557.7,545.6,557.7z M170.8,549.7h370.8v-34.3H170.8V549.7z"/>
<path class="st3" d="M130.3,511.4h378.8v42.3H130.3V511.4z"/>
<path class="st4" d="M148.6,529.6h360.5v-18.2H130.3v42.3h18.2v-24.1H148.6z"/>
<path class="st2" d="M509.1,557.7H130.3c-2.2,0-4-1.8-4-4v-42.3c0-2.2,1.8-4,4-4h378.8c2.2,0,4,1.8,4,4v42.3
	C513.1,555.9,511.3,557.7,509.1,557.7z M134.3,549.7h370.8v-34.3H134.3V549.7z"/>
<path class="st5" d="M169.3,273h337.3v238.3H169.3V273z"/>
<path class="st4" d="M338,273h16.3v238.3H338V273z"/>
<path class="st4" d="M169.3,273h16v238.3h-16V273z"/>
<path class="st2" d="M506.6,515.4H169.3c-2.2,0-4-1.8-4-4V273c0-2.2,1.8-4,4-4h337.3c2.2,0,4,1.8,4,4v238.3
	C510.6,513.6,508.8,515.4,506.6,515.4z M173.3,507.4h329.3V277H173.3V507.4z"/>
<path class="st4" d="M569,333.7H400.3L338,273h168.7L569,333.7z"/>
<path class="st2" d="M334,273h8v238.3h-8V273z"/>
<path class="st4" d="M107,333.7h168.7L338,273H169.3L107,333.7z"/>
<path class="st2" d="M569,337.7H400.3c-1,0-2-0.4-2.8-1.1l-62.3-60.7c-1.2-1.1-1.5-2.9-0.9-4.4s2.1-2.5,3.7-2.5h168.7
	c1,0,2,0.4,2.8,1.1l62.3,60.7c1.2,1.1,1.5,2.9,0.9,4.4C572.1,336.7,570.6,337.7,569,337.7z M401.9,329.7h157.2L505,277H347.8
	L401.9,329.7z"/>
<path class="st2" d="M275.6,337.7H107c-1.6,0-3.1-1-3.7-2.5s-0.2-3.2,0.9-4.4l62.3-60.7c0.7-0.7,1.7-1.1,2.8-1.1H338
	c1.6,0,3.1,1,3.7,2.5s0.2,3.2-0.9,4.4l-62.3,60.7C277.7,337.3,276.7,337.7,275.6,337.7z M116.8,329.7H274l54.1-52.7H170.9
	L116.8,329.7z"/>
<path class="st3" d="M361.6,176.2V91.7h-72v84.5h-35.2l71.1,71.1l71.1-71.1H361.6z"/>
<path class="st4" d="M289.6,91.7h16v84.5h-16V91.7z"/>
<path class="st4" d="M276,176.2h-21.5l71.1,71.1l11.5-11.5L276,176.2z"/>
<path class="st2" d="M325.6,251.3c-1,0-2-0.4-2.8-1.2L251.7,179c-1.1-1.1-1.5-2.9-0.9-4.4s2.1-2.5,3.7-2.5h31.2V91.7
	c0-2.2,1.8-4,4-4h72c2.2,0,4,1.8,4,4v80.5h31.2c1.6,0,3.1,1,3.7,2.5s0.3,3.2-0.9,4.4l-71.1,71.1
	C327.7,250.9,326.6,251.3,325.6,251.3z M264.1,180.2l61.5,61.5l61.5-61.5h-25.5c-2.2,0-4-1.8-4-4V95.7h-64v80.5c0,2.2-1.8,4-4,4
	H264.1z"/>
<path class="st1" d="M361.6,91.7h32v84.5h-32V91.7z"/>
<path class="st1" d="M396.8,176.2l-71.1,71.1h32l71.1-71.1H396.8z"/>
<g>
	<path class="st2" d="M393.6,180.2h-32c-2.2,0-4-1.8-4-4V91.7c0-2.2,1.8-4,4-4h32c2.2,0,4,1.8,4,4v84.5
		C397.6,178.4,395.8,180.2,393.6,180.2z M365.6,172.2h24V95.7h-24V172.2z"/>
	<path class="st2" d="M357.6,251.3h-32c-1.6,0-3.1-1-3.7-2.5s-0.3-3.2,0.9-4.4l71.1-71.1c0.8-0.7,1.8-1.2,2.8-1.2h32
		c1.6,0,3.1,1,3.7,2.5s0.3,3.2-0.9,4.4l-71.1,71.1C359.7,250.9,358.7,251.3,357.6,251.3z M335.3,243.3H356l63.1-63.1h-20.7
		L335.3,243.3z"/>
</g>
<path class="st1" d="M489.9-192H155.2v-279.5l114.6-68.8v-30.3H330c2.6,0,5.3,0.7,7.5,2.1l159.9,92.6c4.6,2.7,7.5,7.6,7.5,13V-207
	C505-198.7,498.2-192,489.9-192z"/>
<path class="st2" d="M489.9-188.2H155.2c-2.1,0-3.8-1.7-3.8-3.8v-279.5c0-1.3,0.7-2.5,1.8-3.2l112.8-67.7v-28.1
	c0-2.1,1.7-3.8,3.8-3.8H330c3.3,0,6.6,0.8,9.4,2.5l159.9,92.6c5.8,3.4,9.4,9.6,9.4,16.3V-207C508.8-196.6,500.3-188.2,489.9-188.2z
	 M159-195.7h330.9c6.2,0,11.3-5.1,11.3-11.3v-255.8c0-4.1-2.2-7.7-5.7-9.8l-159.9-92.6c-1.7-1-3.7-1.5-5.7-1.5h-56.4v26.5
	c0,1.3-0.7,2.5-1.8,3.2L159-469.4V-195.7L159-195.7z"/>
<path class="st3" d="M429.6-192H110.1c-8.3,0-15.1-6.7-15.1-15.1v-255.7c0-5.4,2.8-10.4,7.5-13l159.8-92.6c4.7-2.7,10.5-2.7,15.1,0
	l159.8,92.6c4.6,2.7,7.5,7.6,7.5,13V-207C444.7-198.7,437.9-192,429.6-192z"/>
<path class="st4" d="M110.1-198.4v-255.7c0-5.4,2.8-10.4,7.5-13l159.8-92.7c4.4-2.5,9.9-2.6,14.5-0.3l-14.4-8.4
	c-4.7-2.7-10.5-2.7-15.1,0l-159.8,92.6c-4.6,2.7-7.5,7.6-7.5,13v255.8c0,8.3,6.7,15.1,15.1,15.1h1.5
	C110.6-193.9,110.1-196.1,110.1-198.4z"/>
<path class="st2" d="M429.6-188.2H110.1c-10.4,0-18.9-8.5-18.9-18.9v-255.7c0-6.7,3.6-12.9,9.4-16.3l159.8-92.6
	c5.8-3.4,13.1-3.4,18.9,0l159.8,92.6c5.8,3.4,9.4,9.6,9.4,16.3V-207C448.5-196.6,440-188.2,429.6-188.2z M269.8-566.8
	c-2,0-4,0.5-5.7,1.5l-159.8,92.6c-3.5,2-5.7,5.8-5.7,9.8V-207c0,6.2,5.1,11.3,11.3,11.3h319.7c6.2,0,11.3-5.1,11.3-11.3v-255.8
	c0-4.1-2.2-7.7-5.7-9.8l-159.9-92.6C273.7-566.2,271.8-566.8,269.8-566.8z"/>
<path class="st6" d="M151.2-410.7h242.3V-192H151.2V-410.7z"/>
<path class="st2" d="M393.6-188.2H151.2c-2.1,0-3.8-1.7-3.8-3.8v-218.7c0-2.1,1.7-3.8,3.8-3.8h242.3c2.1,0,3.8,1.7,3.8,3.8V-192
	C397.3-189.9,395.7-188.2,393.6-188.2z M155-195.7h234.9v-211.2H155L155-195.7L155-195.7z"/>
<path class="st2" d="M441.9-475.3h60.3v7.5h-60.3V-475.3z"/>
<path class="st4" d="M151.2-410.7h242.3v32.3H151.2V-410.7z"/>
<path class="st4" d="M151.2-378.4h242.3v32.3H151.2V-378.4z"/>
<path class="st4" d="M151.2-346.2h242.3v32.3H151.2V-346.2z"/>
<g>
	<path class="st2" d="M393.6-374.6H151.2c-2.1,0-3.8-1.7-3.8-3.8v-32.3c0-2.1,1.7-3.8,3.8-3.8h242.3c2.1,0,3.8,1.7,3.8,3.8v32.3
		C397.3-376.3,395.7-374.6,393.6-374.6z M155-382.2h234.9v-24.7H155L155-382.2L155-382.2z"/>
	<path class="st2" d="M393.6-342.5H151.2c-2.1,0-3.8-1.7-3.8-3.8v-32.3c0-2.1,1.7-3.8,3.8-3.8h242.3c2.1,0,3.8,1.7,3.8,3.8v32.3
		C397.3-344.2,395.7-342.5,393.6-342.5z M155-350h234.9v-24.7H155L155-350L155-350z"/>
	<path class="st2" d="M393.6-310.2H151.2c-2.1,0-3.8-1.7-3.8-3.8v-32.3c0-2.1,1.7-3.8,3.8-3.8h242.3c2.1,0,3.8,1.7,3.8,3.8v32.3
		C397.3-311.9,395.7-310.2,393.6-310.2z M155-317.8h234.9v-24.7H155L155-317.8L155-317.8z"/>
</g>
<path class="st7" d="M280.1-230.8H383v93.3H280.1V-230.8z"/>
<path class="st8" d="M383.1-133.8h-103c-2.1,0-3.8-1.7-3.8-3.8v-93.2c0-2.1,1.7-3.8,3.8-3.8H383c2.1,0,3.8,1.7,3.8,3.8v93.2
	C386.9-135.4,385.2-133.8,383.1-133.8z M283.9-141.3h95.4V-227h-95.4V-141.3z"/>
<path class="st5" d="M252.3-230.8h102.9v93.3H252.3V-230.8z"/>
<path class="st4" d="M267.4-215.7h87.8v-15.1H252.3v93.3h15.1V-215.7z"/>
<path class="st2" d="M355.2-133.8H252.3c-2.1,0-3.8-1.7-3.8-3.8v-93.2c0-2.1,1.7-3.8,3.8-3.8h102.9c2.1,0,3.8,1.7,3.8,3.8v93.2
	C359-135.4,357.3-133.8,355.2-133.8z M256.1-141.3h95.4V-227h-95.4V-141.3z"/>
<path class="st9" d="M292.3-230.8h22.9v31h-22.9V-230.8z"/>
<path class="st2" d="M315.2-196h-22.9c-2.1,0-3.8-1.7-3.8-3.8v-31c0-2.1,1.7-3.8,3.8-3.8h22.9c2.1,0,3.8,1.7,3.8,3.8v31
	C319-197.6,317.3-196,315.2-196z M296.1-203.4h15.4V-227h-15.4V-203.4z"/>
<path class="st5" d="M383.1-230.8H486v93.3H383.1V-230.8z"/>
<path class="st2" d="M486-133.8H383.1c-2.1,0-3.8-1.7-3.8-3.8v-93.2c0-2.1,1.7-3.8,3.8-3.8H486c2.1,0,3.8,1.7,3.8,3.8v93.2
	C489.8-135.4,488.1-133.8,486-133.8z M386.9-141.3h95.4V-227h-95.4V-141.3z"/>
<path class="st5" d="M355.2-230.8h102.9v93.3H355.2V-230.8z"/>
<path class="st4" d="M369.2-216.8h89v-14H355.2v93.3h14V-216.8z"/>
<path class="st2" d="M458.1-133.8H355.2c-2.1,0-3.8-1.7-3.8-3.8v-93.2c0-2.1,1.7-3.8,3.8-3.8h102.9c2.1,0,3.8,1.7,3.8,3.8v93.2
	C461.9-135.4,460.2-133.8,458.1-133.8z M359-141.3h95.4V-227H359V-141.3z"/>
<path class="st9" d="M395.2-230.8h22.9v31h-22.9V-230.8z"/>
<path class="st2" d="M418.1-196h-22.9c-2.1,0-3.8-1.7-3.8-3.8v-31c0-2.1,1.7-3.8,3.8-3.8h22.9c2.1,0,3.8,1.7,3.8,3.8v31
	C421.9-197.6,420.2-196,418.1-196z M399-203.4h15.4V-227H399V-203.4z"/>
<path class="st5" d="M357.7-324h102.9v93.2H357.7V-324z"/>
<path class="st2" d="M460.7-227h-103c-2.1,0-3.8-1.7-3.8-3.8V-324c0-2.1,1.7-3.8,3.8-3.8h102.9c2.1,0,3.8,1.7,3.8,3.8v93.2
	C464.4-228.7,462.8-227,460.7-227z M361.4-234.6h95.4v-85.7h-95.4V-234.6z"/>
<path class="st5" d="M329.8-324h102.9v93.2H329.8V-324z"/>
<path class="st4" d="M343.7-310.1h89v-14H329.8v93.2h14L343.7-310.1L343.7-310.1z"/>
<path class="st2" d="M432.8-227H329.8c-2.1,0-3.8-1.7-3.8-3.8V-324c0-2.1,1.7-3.8,3.8-3.8h102.9c2.1,0,3.8,1.7,3.8,3.8v93.2
	C436.5-228.7,434.8-227,432.8-227z M333.6-234.6H429v-85.7h-95.4V-234.6z"/>
<path class="st9" d="M369.8-324h22.9v31h-22.9V-324z"/>
<path class="st2" d="M392.8-289.2h-22.9c-2.1,0-3.8-1.7-3.8-3.8v-31c0-2.1,1.7-3.8,3.8-3.8h22.9c2.1,0,3.8,1.7,3.8,3.8v31
	C396.5-290.9,394.8-289.2,392.8-289.2z M373.6-296.7H389v-23.6h-15.4V-296.7z"/>
</svg>
