<?xml version="1.0" encoding="utf-8"?>
<!-- Generator: Adobe Illustrator 24.3.0, SVG Export Plug-In . SVG Version: 6.00 Build 0)  -->
<svg version="1.1" id="레이어_1" xmlns="http://www.w3.org/2000/svg" xmlns:xlink="http://www.w3.org/1999/xlink" x="0px"
	 y="0px" viewBox="0 0 680.4 680.4" style="enable-background:new 0 0 680.4 680.4;" xml:space="preserve">
<style type="text/css">
	.st0{fill:#FFBB61;}
	.st1{fill:#CC6E2E;}
	.st2{fill:#B3450B;}
	.st3{fill:#FF6C1E;}
	.st4{fill:#52B8D9;}
	.st5{fill:#1FFFF7;stroke:#000000;stroke-width:0.8658;stroke-miterlimit:10;}
	.st6{fill:#88FFF6;}
	.st7{fill:#F9DD9D;}
	.st8{fill:#F8F3F3;}
	.st9{fill:#63312D;}
	.st10{fill:#FFD5B0;}
	.st11{fill:#82D9FF;}
	.st12{fill:#F9A287;}
	.st13{fill:#B3450B;stroke:#000000;stroke-width:0.8658;stroke-miterlimit:10;}
	.st14{fill:#FF7E38;stroke:#000000;stroke-width:0.8658;stroke-miterlimit:10;}
	.st15{fill:#FF6C1E;stroke:#000000;stroke-width:0.8658;stroke-miterlimit:10;}
	.st16{fill:#00B3AC;stroke:#000000;stroke-width:0.8658;stroke-miterlimit:10;}
	.st17{fill:#CAF4FF;}
	.st18{fill:#FFEECF;}
	.st19{fill:#EEEEEE;}
	.st20{fill:#EFC36A;}
	.st21{fill:#AF5B48;}
	.st22{fill:#FFC8BB;}
	.st23{fill:#0277BD;}
	.st24{fill:#84DBFF;}
	.st25{fill:#DB785A;}
	.st26{fill:#D1D1D1;}
</style>
<circle class="st0" cx="338" cy="317.3" r="314.8"/>
<path class="st4" d="M166.8,630.7h378.8V673H166.8V630.7z"/>
<path class="st2" d="M545.6,677H166.8c-2.2,0-4-1.8-4-4v-42.3c0-2.2,1.8-4,4-4h378.8c2.2,0,4,1.8,4,4V673
	C549.6,675.2,547.8,677,545.6,677z M170.8,669h370.8v-34.3H170.8V669z"/>
<path class="st5" d="M130.3,630.7h378.8V673H130.3V630.7z"/>
<path class="st17" d="M148.6,648.9h360.5v-18.2H130.3V673h18.2V648.9z"/>
<path class="st2" d="M509.1,677H130.3c-2.2,0-4-1.8-4-4v-42.3c0-2.2,1.8-4,4-4h378.8c2.2,0,4,1.8,4,4V673
	C513.1,675.2,511.3,677,509.1,677z M134.3,669h370.8v-34.3H134.3V669z"/>
<path class="st7" d="M169.3,392.3h337.3v238.3H169.3V392.3z"/>
<path class="st18" d="M338,392.3h16.3v238.3H338V392.3z"/>
<path class="st18" d="M169.3,392.3h16v238.3h-16V392.3z"/>
<path class="st2" d="M506.6,634.7H169.3c-2.2,0-4-1.8-4-4V392.3c0-2.2,1.8-4,4-4h337.3c2.2,0,4,1.8,4,4v238.3
	C510.6,632.9,508.8,634.7,506.6,634.7z M173.3,626.7h329.3V396.3H173.3V626.7z"/>
<path class="st18" d="M569,453H400.3L338,392.3h168.7L569,453z"/>
<path class="st2" d="M334,392.3h8v238.3h-8V392.3z"/>
<path class="st18" d="M107,453h168.7l62.3-60.7H169.3L107,453z"/>
<path class="st2" d="M569,457H400.3c-1,0-2-0.4-2.8-1.1l-62.3-60.7c-1.2-1.1-1.5-2.9-0.9-4.4c0.6-1.5,2.1-2.5,3.7-2.5h168.7
	c1,0,2,0.4,2.8,1.1l62.3,60.7c1.2,1.1,1.5,2.9,0.9,4.4C572.1,456,570.6,457,569,457z M401.9,449h157.2L505,396.3H347.8L401.9,449z"
	/>
<path class="st2" d="M275.6,457H107c-1.6,0-3.1-1-3.7-2.5c-0.6-1.5-0.2-3.2,0.9-4.4l62.3-60.7c0.7-0.7,1.7-1.1,2.8-1.1H338
	c1.6,0,3.1,1,3.7,2.5c0.6,1.5,0.2,3.2-0.9,4.4l-62.3,60.7C277.7,456.6,276.7,457,275.6,457z M116.8,449H274l54.1-52.7H170.9
	L116.8,449z"/>
<path class="st5" d="M361.6,295.5V211h-72v84.5h-35.2l71.1,71.1l71.1-71.1H361.6z"/>
<path class="st17" d="M289.6,211h16v84.5h-16V211z"/>
<path class="st17" d="M276,295.5h-21.5l71.1,71.1l11.5-11.5L276,295.5z"/>
<path class="st2" d="M325.6,370.6c-1,0-2-0.4-2.8-1.2l-71.1-71.1c-1.1-1.1-1.5-2.9-0.9-4.4c0.6-1.5,2.1-2.5,3.7-2.5h31.2V211
	c0-2.2,1.8-4,4-4h72c2.2,0,4,1.8,4,4v80.5h31.2c1.6,0,3.1,1,3.7,2.5c0.6,1.5,0.3,3.2-0.9,4.4l-71.1,71.1
	C327.7,370.2,326.6,370.6,325.6,370.6z M264.1,299.5l61.5,61.5l61.5-61.5h-25.5c-2.2,0-4-1.8-4-4V215h-64v80.5c0,2.2-1.8,4-4,4
	H264.1z"/>
<path class="st4" d="M361.6,211h32v84.5h-32V211z"/>
<path class="st4" d="M396.8,295.5l-71.1,71.1h32l71.1-71.1H396.8z"/>
<g>
	<path class="st2" d="M393.6,299.5h-32c-2.2,0-4-1.8-4-4V211c0-2.2,1.8-4,4-4h32c2.2,0,4,1.8,4,4v84.5
		C397.6,297.7,395.8,299.5,393.6,299.5z M365.6,291.5h24V215h-24V291.5z"/>
	<path class="st2" d="M357.6,370.6h-32c-1.6,0-3.1-1-3.7-2.5c-0.6-1.5-0.3-3.2,0.9-4.4l71.1-71.1c0.8-0.7,1.8-1.2,2.8-1.2h32
		c1.6,0,3.1,1,3.7,2.5c0.6,1.5,0.3,3.2-0.9,4.4l-71.1,71.1C359.7,370.2,358.7,370.6,357.6,370.6z M335.3,362.6h20.7l63.1-63.1h-20.7
		L335.3,362.6z"/>
</g>
</svg>
