<?xml version="1.0" encoding="utf-8"?>
<!-- Generator: Adobe Illustrator 25.0.0, SVG Export Plug-In . SVG Version: 6.00 Build 0)  -->
<svg version="1.1" id="레이어_1" xmlns="http://www.w3.org/2000/svg" xmlns:xlink="http://www.w3.org/1999/xlink" x="0px"
	 y="0px" viewBox="0 0 680.4 680.4" style="enable-background:new 0 0 680.4 680.4;" xml:space="preserve">
<style type="text/css">
	.st0{fill:#FFBB61;}
	.st1{fill:#FF6C1E;}
	.st2{fill:#B3450B;}
	.st3{fill:#84DBFF;}
	.st4{fill:#63312D;}
	.st5{fill:#F8F3F3;}
	.st6{fill:#DB785A;}
	.st7{fill:#FFC8BB;}
	.st8{fill:#D1D1D1;}
</style>
<circle class="st0" cx="339.9" cy="341.5" r="339"/>
<path class="st1" d="M225.2,508.4c29.2,0,52.9-23.7,52.9-52.9s-23.7-52.9-52.9-52.9h-29.8v105.8h29.8V508.4z"/>
<path class="st2" d="M225.2,513h-29.8c-2.5,0-4.6-2.1-4.6-4.6V402.6c0-2.5,2.1-4.6,4.6-4.6h29.8c31.8,0,57.5,25.8,57.5,57.5
	C282.7,487.1,256.9,513,225.2,513z M200.1,503.8h25.2c26.6,0,48.3-21.6,48.3-48.3c0-26.6-21.6-48.3-48.3-48.3h-25.2V503.8z"/>
<path class="st3" d="M248.3,455.4c0,29.2-23.7,52.9-52.9,52.9s-52.9-23.7-52.9-52.9s23.7-52.9,52.9-52.9S248.3,426.2,248.3,455.4z"
	/>
<path class="st4" d="M195.5,513c-31.8,0-57.5-25.8-57.5-57.5s25.8-57.5,57.5-57.5s57.5,25.8,57.5,57.5
	C252.9,487.1,227.1,513,195.5,513z M195.5,407.1c-26.6,0-48.3,21.6-48.3,48.3c0,26.6,21.6,48.3,48.3,48.3
	c26.6,0,48.3-21.6,48.3-48.3C243.7,428.7,222.1,407.1,195.5,407.1z"/>
<path class="st5" d="M216.1,455.4c0,11.4-9.3,20.7-20.7,20.7s-20.7-9.3-20.7-20.7s9.3-20.7,20.7-20.7
	C206.9,434.7,216.1,444,216.1,455.4z"/>
<path class="st4" d="M195.5,480.8c-13.9,0-25.3-11.4-25.3-25.3c0-13.9,11.4-25.3,25.3-25.3c13.9,0,25.3,11.4,25.3,25.3
	C220.7,469.4,209.4,480.8,195.5,480.8z M195.5,439.3c-8.9,0-16.1,7.3-16.1,16.1c0,8.9,7.3,16.1,16.1,16.1c8.9,0,16.1-7.3,16.1-16.1
	C211.5,446.6,204.3,439.3,195.5,439.3z"/>
<path class="st1" d="M505.6,508.4c29.2,0,52.9-23.7,52.9-52.9s-23.7-52.9-52.9-52.9h-29.8v105.8h29.8V508.4z"/>
<path class="st2" d="M505.6,513h-29.8c-2.5,0-4.6-2.1-4.6-4.6V402.6c0-2.5,2.1-4.6,4.6-4.6h29.8c31.8,0,57.5,25.8,57.5,57.5
	C563.2,487.1,537.3,513,505.6,513z M480.4,503.8h25.2c26.6,0,48.3-21.6,48.3-48.3c0-26.6-21.6-48.3-48.3-48.3h-25.2V503.8z"/>
<path class="st3" d="M528.8,455.4c0,29.2-23.7,52.9-52.9,52.9s-52.9-23.7-52.9-52.9s23.7-52.9,52.9-52.9S528.8,426.2,528.8,455.4z"
	/>
<path class="st4" d="M475.8,513c-31.8,0-57.5-25.8-57.5-57.5s25.8-57.5,57.5-57.5s57.5,25.8,57.5,57.5
	C533.4,487.1,507.6,513,475.8,513z M475.8,407.1c-26.6,0-48.3,21.6-48.3,48.3c0,26.6,21.6,48.3,48.3,48.3s48.3-21.6,48.3-48.3
	S502.5,407.1,475.8,407.1z"/>
<path class="st5" d="M496.5,455.4c0,11.4-9.3,20.7-20.7,20.7s-20.7-9.3-20.7-20.7s9.3-20.7,20.7-20.7S496.5,444,496.5,455.4z"/>
<path class="st4" d="M475.8,480.8c-13.9,0-25.3-11.4-25.3-25.3c0-13.9,11.4-25.3,25.3-25.3s25.3,11.4,25.3,25.3
	C501.1,469.4,489.7,480.8,475.8,480.8z M475.8,439.3c-8.9,0-16.1,7.3-16.1,16.1c0,8.9,7.3,16.1,16.1,16.1s16.1-7.3,16.1-16.1
	C491.9,446.6,484.7,439.3,475.8,439.3z"/>
<path class="st5" d="M517.1,455.4c0,11.4-9.3,20.7-20.7,20.7s-20.7-9.3-20.7-20.7s9.3-20.7,20.7-20.7S517.1,444,517.1,455.4z"/>
<path class="st4" d="M496.4,480.8c-13.9,0-25.3-11.4-25.3-25.3c0-13.9,11.4-25.3,25.3-25.3c13.9,0,25.3,11.4,25.3,25.3
	C521.7,469.4,510.3,480.8,496.4,480.8z M496.4,439.3c-8.9,0-16.1,7.3-16.1,16.1c0,8.9,7.3,16.1,16.1,16.1c8.9,0,16.1-7.3,16.1-16.1
	C512.5,446.6,505.3,439.3,496.4,439.3z"/>
<path class="st6" d="M436.8,419.8H143.9V184.1c0-10.1,8.3-18.4,18.4-18.4h256.2c10.1,0,18.4,8.3,18.4,18.4v235.7H436.8z"/>
<path class="st2" d="M436.8,424.4H143.9c-2.5,0-4.6-2.1-4.6-4.6V184.1c0-12.7,10.4-23,23-23h256.2c12.7,0,23,10.4,23,23v235.8
	C441.4,422.4,439.3,424.4,436.8,424.4z M148.5,415.2h283.8V184.1c0-7.6-6.2-13.8-13.8-13.8H162.2c-7.6,0-13.8,6.2-13.8,13.8v231.1
	H148.5z"/>
<path class="st1" d="M381.6,419.8H88.7V184.1c0-10.1,8.3-18.4,18.4-18.4h256.2c10.1,0,18.4,8.3,18.4,18.4v235.7H381.6z"/>
<path class="st7" d="M107.1,193.3c0-5.1,4.1-9.2,9.2-9.2h265.4c0-10.1-8.3-18.4-18.4-18.4H107.1c-10.1,0-18.4,8.3-18.4,18.4v235.8
	h18.4V193.3z"/>
<path class="st2" d="M381.6,424.4H88.7c-2.5,0-4.6-2.1-4.6-4.6V184.1c0-12.7,10.4-23,23-23h256.2c12.7,0,23,10.4,23,23v235.8
	C386.2,422.4,384.2,424.4,381.6,424.4z M93.3,415.2h283.8V184.1c0-7.6-6.2-13.8-13.8-13.8H107.1c-7.6,0-13.8,6.2-13.8,13.8V415.2z"
	/>
<path class="st1" d="M595.5,419.8H436.8V261.2h96.6c5.5,0,10.8,2.6,14.2,7l44.3,58.5c2.3,3.1,3.6,6.9,3.6,10.7v82.4H595.5z"/>
<path class="st2" d="M595.5,424.4H436.8c-2.5,0-4.6-2.1-4.6-4.6V261.2c0-2.5,2.1-4.6,4.6-4.6h96.6c6.9,0,13.6,3.3,17.8,8.9
	l44.3,58.5c2.9,3.9,4.5,8.6,4.5,13.5v82.4C600.1,422.4,598,424.4,595.5,424.4z M441.4,415.2h149.5v-77.8c0-2.9-0.9-5.6-2.6-7.9
	L544,271c-2.4-3.2-6.3-5.2-10.5-5.2h-92v149.4H441.4z"/>
<path class="st8" d="M591.9,326.7l-31.8-41.9H469v52h126.4C595.3,333.2,594.1,329.7,591.9,326.7z"/>
<path class="st2" d="M595.4,341.5H469c-2.5,0-4.6-2.1-4.6-4.6v-52.1c0-2.5,2.1-4.6,4.6-4.6h91.1c1.4,0,2.8,0.7,3.7,1.8l31.8,41.9
	c2.8,3.7,4.3,8.1,4.5,12.9c0,1.3-0.5,2.4-1.3,3.3C597.8,340.9,596.7,341.5,595.4,341.5z M473.6,332.3h116.2c-0.5-1-0.9-2-1.6-2.9
	l-30.4-40h-84.2V332.3z"/>
<path class="st7" d="M540.3,419.8H381.6V261.2h96.6c5.5,0,10.8,2.6,14.2,7l44.3,58.5c2.3,3.1,3.6,6.9,3.6,10.7v82.4H540.3z"/>
<path class="st7" d="M400,279.5h96.6c1.7,0,3.3,0.3,4.9,0.8l-9.2-12.2c-3.3-4.4-8.6-7-14.2-7h-96.6v158.7H400V279.5z"/>
<path class="st2" d="M540.3,424.4H381.6c-2.5,0-4.6-2.1-4.6-4.6V261.2c0-2.5,2.1-4.6,4.6-4.6h96.6c6.9,0,13.6,3.3,17.8,8.9
	l44.3,58.5c2.9,3.9,4.5,8.6,4.5,13.5v82.4C544.9,422.4,542.8,424.4,540.3,424.4z M386.2,415.2h149.5v-77.8c0-2.9-0.9-5.6-2.6-7.9
	L488.7,271c-2.4-3.2-6.3-5.2-10.5-5.2h-92v149.4H386.2z"/>
<path class="st8" d="M596.9,450.8H127.6v-31.1h469.2c5.1,0,9.2,4.1,9.2,9.2v12.7C606.1,446.8,602,450.8,596.9,450.8z"/>
<path class="st2" d="M596.9,455.4H127.6c-2.5,0-4.6-2.1-4.6-4.6v-31.1c0-2.5,2.1-4.6,4.6-4.6h469.2c7.6,0,13.8,6.2,13.8,13.8v12.7
	C610.7,449.3,604.5,455.4,596.9,455.4z M132.2,446.2h464.6c2.5,0,4.6-2.1,4.6-4.6V429c0-2.5-2.1-4.6-4.6-4.6H132.2V446.2z"/>
<path class="st5" d="M543.6,450.8h-460c-5.1,0-9.2-4.1-9.2-9.2V429c0-5.1,4.1-9.2,9.2-9.2h460c5.1,0,9.2,4.1,9.2,9.2v12.7
	C552.8,446.8,548.7,450.8,543.6,450.8z"/>
<path class="st2" d="M543.6,455.4h-460c-7.6,0-13.8-6.2-13.8-13.8V429c0-7.6,6.2-13.8,13.8-13.8h460c7.6,0,13.8,6.2,13.8,13.8v12.7
	C557.4,449.3,551.2,455.4,543.6,455.4z M83.6,424.4c-2.5,0-4.6,2.1-4.6,4.6v12.7c0,2.5,2.1,4.6,4.6,4.6h460c2.5,0,4.6-2.1,4.6-4.6
	V429c0-2.5-2.1-4.6-4.6-4.6H83.6z"/>
<path class="st5" d="M536.7,326.7l-31.8-41.9h-91.1v52h126.4C540.2,333.2,538.9,329.7,536.7,326.7z"/>
<path class="st2" d="M540.3,341.5H413.8c-2.5,0-4.6-2.1-4.6-4.6v-52.1c0-2.5,2.1-4.6,4.6-4.6h91.1c1.4,0,2.8,0.7,3.7,1.8l31.8,41.9
	c2.8,3.7,4.3,8.1,4.5,12.9c0,1.3-0.5,2.4-1.3,3.3C542.7,340.9,541.4,341.5,540.3,341.5z M418.4,332.3h116.2c-0.5-1-0.9-2-1.6-2.9
	l-30.4-40h-84.2V332.3z"/>
<path class="st2" d="M409.2,336.9h9.2v80.9h-9.2V336.9z"/>
<path class="st2" d="M432,352h22.1v9.2H432V352z"/>
<path class="st6" d="M488.7,324.4h22.6v35.3h-22.6V324.4z"/>
<path class="st2" d="M511.3,364.4h-22.6c-2.5,0-4.6-2.1-4.6-4.6v-35.3c0-2.5,2.1-4.6,4.6-4.6h22.6c2.5,0,4.6,2.1,4.6,4.6v35.3
	C515.9,362.3,513.8,364.4,511.3,364.4z M493.3,355.2h13.3v-26.1h-13.3V355.2z"/>
<path class="st6" d="M195.5,508.4c29.2,0,52.9-23.7,52.9-52.9s-23.7-52.9-52.9-52.9h-29.8v105.8h29.8V508.4z"/>
<path class="st2" d="M195.5,513h-29.8c-2.5,0-4.6-2.1-4.6-4.6V402.6c0-2.5,2.1-4.6,4.6-4.6h29.8c31.8,0,57.5,25.8,57.5,57.5
	C252.9,487.1,227.1,513,195.5,513z M170.3,503.8h25.2c26.6,0,48.3-21.6,48.3-48.3c0-26.6-21.6-48.3-48.3-48.3h-25.2V503.8z"/>
<path class="st7" d="M218.6,455.4c0,29.2-23.7,52.9-52.9,52.9s-52.9-23.7-52.9-52.9s23.7-52.9,52.9-52.9S218.6,426.2,218.6,455.4z"
	/>
<path class="st2" d="M165.7,513c-31.8,0-57.5-25.8-57.5-57.5s25.8-57.5,57.5-57.5s57.5,25.8,57.5,57.5
	C223.2,487.1,197.3,513,165.7,513z M165.7,407.1c-26.6,0-48.3,21.6-48.3,48.3c0,26.6,21.6,48.3,48.3,48.3s48.3-21.6,48.3-48.3
	S192.3,407.1,165.7,407.1z"/>
<path class="st5" d="M186.4,455.4c0,11.4-9.3,20.7-20.7,20.7s-20.7-9.3-20.7-20.7s9.3-20.7,20.7-20.7S186.4,444,186.4,455.4z"/>
<path class="st2" d="M165.7,480.8c-13.9,0-25.3-11.4-25.3-25.3c0-13.9,11.4-25.3,25.3-25.3s25.3,11.4,25.3,25.3
	C191,469.4,179.6,480.8,165.7,480.8z M165.7,439.3c-8.9,0-16.1,7.3-16.1,16.1c0,8.9,7.3,16.1,16.1,16.1c8.9,0,16.1-7.3,16.1-16.1
	C181.8,446.6,174.5,439.3,165.7,439.3z"/>
<path class="st6" d="M475.8,508.4c29.2,0,52.9-23.7,52.9-52.9s-23.7-52.9-52.9-52.9H446v105.8h29.8V508.4z"/>
<path class="st2" d="M475.8,513H446c-2.5,0-4.6-2.1-4.6-4.6V402.6c0-2.5,2.1-4.6,4.6-4.6h29.8c31.8,0,57.5,25.8,57.5,57.5
	C533.4,487.1,507.6,513,475.8,513z M450.7,503.8h25.2c26.6,0,48.3-21.6,48.3-48.3c0-26.6-21.6-48.3-48.3-48.3h-25.2V503.8z"/>
<path class="st7" d="M499,455.4c0,29.2-23.7,52.9-52.9,52.9c-29.2,0-52.9-23.7-52.9-52.9s23.7-52.9,52.9-52.9
	C475.4,402.5,499,426.2,499,455.4z"/>
<path class="st2" d="M446.1,513c-31.8,0-57.5-25.8-57.5-57.5s25.8-57.5,57.5-57.5s57.5,25.8,57.5,57.5
	C503.6,487.1,477.8,513,446.1,513z M446.1,407.1c-26.6,0-48.3,21.6-48.3,48.3c0,26.6,21.6,48.3,48.3,48.3s48.3-21.6,48.3-48.3
	C494.4,428.7,472.7,407.1,446.1,407.1z"/>
<path class="st5" d="M466.8,455.4c0,11.4-9.3,20.7-20.7,20.7s-20.7-9.3-20.7-20.7s9.3-20.7,20.7-20.7S466.8,444,466.8,455.4z"/>
<g>
	<path class="st2" d="M446.1,480.8c-13.9,0-25.3-11.4-25.3-25.3c0-13.9,11.4-25.3,25.3-25.3c13.9,0,25.3,11.4,25.3,25.3
		C471.3,469.4,460.1,480.8,446.1,480.8z M446.1,439.3c-8.9,0-16.1,7.3-16.1,16.1c0,8.9,7.3,16.1,16.1,16.1c8.9,0,16.1-7.3,16.1-16.1
		C462.2,446.6,455,439.3,446.1,439.3z"/>
	<path class="st2" d="M134.1,209.4h63.1v9.2h-63.1V209.4z"/>
	<path class="st2" d="M134.1,233h63.1v9.2h-63.1V233z"/>
	<path class="st2" d="M134.1,256.6h63.1v9.2h-63.1V256.6z"/>
	<path class="st2" d="M437,284.8h9.2v52.1H437V284.8z"/>
</g>
</svg>
