<?xml version="1.0" encoding="utf-8"?>
<!-- Generator: Adobe Illustrator 25.0.0, SVG Export Plug-In . SVG Version: 6.00 Build 0)  -->
<svg version="1.1" id="레이어_1" xmlns="http://www.w3.org/2000/svg" xmlns:xlink="http://www.w3.org/1999/xlink" x="0px"
	 y="0px" viewBox="0 0 680.4 680.4" style="enable-background:new 0 0 680.4 680.4;" xml:space="preserve">
<style type="text/css">
	.st0{fill:#FFBB61;}
	.st1{fill:#FF6C1E;}
	.st2{fill:#B3450B;}
	.st3{fill:#EEEEEE;}
	.st4{fill:#0277BD;}
	.st5{fill:#FFC8BB;}
	.st6{fill:#FFEECF;}
	.st7{fill:#F8F3F3;}
</style>
<circle class="st0" cx="340.2" cy="341.5" r="339"/>
<path class="st1" d="M427,435.5H245.5V290.4l90.8-52.6l90.8,52.6L427,435.5L427,435.5z"/>
<path class="st2" d="M427,439.5H245.5c-2.2,0-4-1.8-4-4V290.4c0-1.4,0.8-2.7,2-3.5l90.8-52.6c1.2-0.7,2.8-0.7,4,0l90.7,52.6
	c1.2,0.7,2,2,2,3.5v145.1C431,437.7,429.2,439.5,427,439.5z M249.5,431.5H423V292.7l-86.8-50.3l-86.8,50.3L249.5,431.5L249.5,431.5z
	"/>
<path class="st3" d="M274.6,322h125.8v113.5H274.6V322z"/>
<path class="st4" d="M400.4,439.5H274.6c-2.2,0-4-1.8-4-4V322c0-2.2,1.8-4,4-4h125.8c2.2,0,4,1.8,4,4v113.5
	C404.4,437.7,402.6,439.5,400.4,439.5z M278.6,431.5h117.8V326H278.6V431.5z"/>
<path class="st5" d="M274.6,322h125.8v22.5H274.6V322z"/>
<path class="st2" d="M400.4,439.5H274.6c-2.2,0-4-1.8-4-4V322c0-2.2,1.8-4,4-4h125.8c2.2,0,4,1.8,4,4v113.5
	C404.4,437.7,402.6,439.5,400.4,439.5z M278.6,431.5h117.8V326H278.6V431.5z"/>
<path class="st2" d="M274.6,340.5h125.8v8H274.6V340.5z"/>
<path class="st5" d="M137.1,111.3h118.1v107H137.1V111.3z"/>
<path class="st2" d="M255.2,222.3H137.1c-2.2,0-4-1.8-4-4v-107c0-2.2,1.8-4,4-4h118.1c2.2,0,4,1.8,4,4v107
	C259.2,220.6,257.4,222.3,255.2,222.3z M141.1,214.3h110.1v-99H141.1V214.3z"/>
<path class="st5" d="M105.1,111.3h118.1v107H105.1V111.3z"/>
<path class="st6" d="M121.1,127.3h102.1v-16H105.1v107h16V127.3z"/>
<path class="st2" d="M223.2,222.3H105.1c-2.2,0-4-1.8-4-4v-107c0-2.2,1.8-4,4-4h118.1c2.2,0,4,1.8,4,4v107
	C227.2,220.6,225.4,222.3,223.2,222.3z M109.1,214.3h110.1v-99H109.1V214.3z"/>
<path class="st7" d="M151,111.3h26.3V147H151V111.3z"/>
<path class="st2" d="M177.3,151.1H151c-2.2,0-4-1.8-4-4v-35.7c0-2.2,1.8-4,4-4h26.3c2.2,0,4,1.8,4,4v35.7
	C181.3,149.2,179.5,151.1,177.3,151.1z M155,143.1h18.3v-27.7H155V143.1z"/>
<path class="st5" d="M137.1,466.6h118.1v107H137.1V466.6z"/>
<path class="st2" d="M255.2,577.7H137.1c-2.2,0-4-1.8-4-4v-107c0-2.2,1.8-4,4-4h118.1c2.2,0,4,1.8,4,4v107
	C259.2,575.9,257.4,577.7,255.2,577.7z M141.1,569.7h110.1v-99H141.1V569.7z"/>
<path class="st5" d="M105.1,466.6h118.1v107H105.1V466.6z"/>
<path class="st6" d="M121.1,482.6h102.1v-16H105.1v107h16V482.6z"/>
<path class="st2" d="M223.2,577.7H105.1c-2.2,0-4-1.8-4-4v-107c0-2.2,1.8-4,4-4h118.1c2.2,0,4,1.8,4,4v107
	C227.2,575.9,225.4,577.7,223.2,577.7z M109.1,569.7h110.1v-99H109.1V569.7z"/>
<path class="st7" d="M151,466.6h26.3v35.7H151V466.6z"/>
<path class="st2" d="M177.3,506.4H151c-2.2,0-4-1.8-4-4v-35.7c0-2.2,1.8-4,4-4h26.3c2.2,0,4,1.8,4,4v35.7
	C181.3,504.5,179.5,506.4,177.3,506.4z M155,498.4h18.3v-27.7H155V498.4z"/>
<path class="st5" d="M449.2,111.3h118.1v107H449.2V111.3z"/>
<path class="st2" d="M567.3,222.3H449.2c-2.2,0-4-1.8-4-4v-107c0-2.2,1.8-4,4-4h118.1c2.2,0,4,1.8,4,4v107
	C571.3,220.6,569.6,222.3,567.3,222.3z M453.2,214.3h110.1v-99H453.2V214.3z"/>
<path class="st5" d="M417.2,111.3h118.1v107H417.2V111.3z"/>
<path class="st6" d="M433.2,127.3h102.1v-16H417.2v107h16V127.3z"/>
<path class="st2" d="M535.3,222.3H417.2c-2.2,0-4-1.8-4-4v-107c0-2.2,1.8-4,4-4h118.1c2.2,0,4,1.8,4,4v107
	C539.3,220.6,537.6,222.3,535.3,222.3z M421.2,214.3h110.1v-99H421.2V214.3z"/>
<path class="st7" d="M463.1,111.3h26.3V147h-26.3V111.3z"/>
<path class="st2" d="M489.4,151.1h-26.3c-2.2,0-4-1.8-4-4v-35.7c0-2.2,1.8-4,4-4h26.3c2.2,0,4,1.8,4,4v35.7
	C493.4,149.2,491.7,151.1,489.4,151.1z M467.1,143.1h18.3v-27.7h-18.3V143.1z"/>
<path class="st5" d="M449.2,466.6h118.1v107H449.2V466.6z"/>
<path class="st2" d="M567.3,577.7H449.2c-2.2,0-4-1.8-4-4v-107c0-2.2,1.8-4,4-4h118.1c2.2,0,4,1.8,4,4v107
	C571.3,575.9,569.6,577.7,567.3,577.7z M453.2,569.7h110.1v-99H453.2V569.7z"/>
<path class="st5" d="M417.2,466.6h118.1v107H417.2V466.6z"/>
<path class="st6" d="M433.2,482.6h102.1v-16H417.2v107h16V482.6z"/>
<path class="st2" d="M535.3,577.7H417.2c-2.2,0-4-1.8-4-4v-107c0-2.2,1.8-4,4-4h118.1c2.2,0,4,1.8,4,4v107
	C539.3,575.9,537.6,577.7,535.3,577.7z M421.2,569.7h110.1v-99H421.2V569.7z"/>
<path class="st7" d="M463.1,466.6h26.3v35.7h-26.3V466.6z"/>
<g>
	<path class="st2" d="M489.4,506.4h-26.3c-2.2,0-4-1.8-4-4v-35.7c0-2.2,1.8-4,4-4h26.3c2.2,0,4,1.8,4,4v35.7
		C493.4,504.5,491.7,506.4,489.4,506.4z M467.1,498.4h18.3v-27.7h-18.3V498.4z"/>
	<path class="st2" d="M160.1,218.3h8v248.3h-8V218.3z"/>
	<path class="st2" d="M504.3,218.3h8v248.3h-8V218.3z"/>
	<path class="st2" d="M164.1,338.5h81.3v8h-81.3V338.5z"/>
	<path class="st2" d="M427,338.5h81.4v8H427V338.5z"/>
</g>
</svg>
