<svg id="Layer_3" enable-background="new 0 0 64 64" height="512" viewBox="0 0 64 64" width="512" xmlns="http://www.w3.org/2000/svg"><g><path d="m62 44.459c0 6.926-5.615 12.541-12.541 12.541h-34.918c-6.926 0-12.541-5.615-12.541-12.541 0-5.599 3.712-10.52 9.095-12.058l3.251-.929c5.741-1.64 11.683-2.472 17.654-2.472 5.971 0 11.913.832 17.654 2.472l3.251.929c5.383 1.539 9.095 6.459 9.095 12.058z" fill="#d8923e"/><g fill="#bc7f35"><path d="m13.973 31.579c-.084 3.323-.361 6.639-.832 9.931-.081.568-.567.99-1.141.99-.574 0-1.06-.422-1.141-.99-.414-2.899-.679-5.817-.793-8.742l-.008-.021c.338-.129.685-.245 1.038-.346z"/><path d="m24 29.5v1.429c0 4.042-.287 8.079-.859 12.081-.081.568-.567.99-1.141.99-.574 0-1.06-.422-1.141-.99-.572-4.002-.859-8.039-.859-12.081v-.799c1.327-.252 2.661-.462 4-.63z"/><path d="m34 29.031v3.898c0 4.042-.287 8.079-.859 12.081-.081.568-.567.99-1.141.99-.574 0-1.06-.422-1.141-.99-.572-4.002-.859-8.039-.859-12.081v-3.898c.666-.021 1.333-.031 2-.031.667 0 1.334.01 2 .031z"/><path d="m44 30.13v.799c0 4.042-.287 8.079-.859 12.081-.081.568-.567.99-1.141.99-.574 0-1.06-.422-1.141-.99-.572-4.002-.859-8.039-.859-12.081v-1.429c1.339.168 2.673.378 4 .63z"/><path d="m53.935 32.768c-.114 2.925-.379 5.843-.793 8.742-.082.568-.568.99-1.142.99-.574 0-1.06-.422-1.141-.99-.47-3.292-.748-6.608-.832-9.931l2.877.822c.336.096.666.205.989.327z"/></g><path d="m50.842 31.812 3.403-3.403c4.897-4.897 4.897-12.838 0-17.735-3.959-3.959-10.063-4.814-14.958-2.095l-2.955 1.642c-5.219 2.9-10.009 6.513-14.231 10.735-3.273 3.273-6.181 6.888-8.673 10.78l.919-.263c5.74-1.641 11.682-2.473 17.653-2.473 5.971 0 11.913.832 17.654 2.472z" fill="#8f6128"/><path d="m13.427 31.735.919-.263c1.836-.525 3.693-.967 5.564-1.325l.002.009c-.688-.739-1.39-1.466-2.105-2.181l-1.01-1.01c-1.194 1.538-2.319 3.129-3.37 4.77z" fill="#bc7f35"/><path d="m27.742 29.142c-1.471-1.282-2.897-2.614-4.278-3.994l-2.756-2.756c.456-.486.92-.965 1.392-1.436.472-.472.951-.936 1.436-1.392l2.756 2.756c2.121 2.121 4.128 4.351 6.013 6.682-.101-.002-.203-.002-.305-.002-1.422 0-2.842.047-4.258.142z" fill="#bc7f35"/><path d="m31.385 13.269.565.565c2.858 2.858 5.51 5.916 7.936 9.15.344.459.299 1.101-.107 1.507-.406.406-1.048.451-1.507.107-3.234-2.425-6.291-5.077-9.15-7.936l-1.01-1.01c1.065-.829 2.157-1.623 3.273-2.383z" fill="#bc7f35"/><path d="m40.275 8.109c1.987 2.149 3.863 4.399 5.62 6.742.344.459.299 1.101-.107 1.507-.406.406-1.048.451-1.507.107-2.66-1.995-5.201-4.144-7.61-6.434l2.616-1.453c.321-.179.648-.342.979-.489z" fill="#bc7f35"/><path d="m53.179 31.439-.428-.122 2.202-2.201c5.279-5.28 5.279-13.87 0-19.149-4.253-4.253-10.894-5.183-16.152-2.263l-2.956 1.642c-5.301 2.945-10.164 6.613-14.453 10.902-3.223 3.223-6.106 6.8-8.589 10.625l-1.984.567c-5.783 1.653-9.821 7.006-9.821 13.019 0 7.467 6.075 13.541 13.542 13.541h34.918c7.467-.001 13.542-6.075 13.542-13.542 0-6.013-4.039-11.366-9.821-13.019zm-.291 2.009c-.126 2.645-.364 5.305-.737 7.92-.021.149-.28.151-.303 0-.399-2.792-.65-5.627-.767-8.448l1.549.442c.087.025.171.059.258.086zm-13.116-23.996c.08-.044.163-.08.244-.122 1.779 1.958 3.492 4.006 5.079 6.121.045.061.04.147-.014.2-.053.056-.139.061-.2.014-2.255-1.691-4.437-3.518-6.516-5.431zm-3.243 1.809c2.27 2.122 4.669 4.142 7.153 6.005.382.287.836.427 1.29.427.556 0 1.11-.212 1.525-.627.752-.753.838-1.963.2-2.814-1.48-1.974-3.076-3.881-4.724-5.725 4.02-1.233 8.514-.199 11.566 2.854 4.5 4.499 4.5 11.821 0 16.32l-2.988 2.987-.622-.178c-5.579-1.593-11.355-2.416-17.14-2.485-1.82-2.226-3.76-4.386-5.788-6.414l-2.014-2.014c.99-.901 2.006-1.771 3.05-2.606l.378.378c2.882 2.882 5.997 5.583 9.257 8.028.382.287.836.427 1.289.427.556 0 1.11-.212 1.525-.627.752-.753.839-1.963.2-2.814-2.362-3.148-4.965-6.155-7.736-8.954 1.167-.762 2.361-1.483 3.579-2.168zm4.471 19.386c.668.096 1.334.2 1.999.317-.002 3.971-.286 7.975-.848 11.904-.021.148-.281.148-.303 0-.563-3.942-.848-7.96-.848-11.939zm-10-.63c.333-.005.666-.017 1-.017.333 0 .666.012 1 .017l-.001 2.912c0 3.982-.285 7.999-.848 11.939-.021.148-.281.148-.303 0-.563-3.942-.848-7.96-.848-11.939zm.267-15.451c2.806 2.808 5.436 5.842 7.818 9.017.045.061.039.146-.015.2-.053.054-.138.062-.2.015-3.185-2.389-6.227-5.027-9.042-7.842l-.2-.2c.541-.405 1.086-.803 1.639-1.19zm-7.74 6.401 2.059 2.059c1.596 1.596 3.118 3.289 4.588 5.017-.686.019-1.371.051-2.056.091-1.35-1.188-2.678-2.425-3.947-3.694l-2.052-2.052c.232-.239.452-.49.688-.726s.48-.463.72-.695zm-6.427 7.716c.282.282.553.575.831.861-.721.159-1.44.329-2.155.512.37-.527.752-1.044 1.138-1.56zm3.158.392c-.575-.609-1.152-1.215-1.744-1.807l-.378-.378c.836-1.045 1.707-2.06 2.607-3.049l2.014 2.014c.848.848 1.726 1.677 2.614 2.494-1.713.173-3.418.418-5.113.726zm2.742 1.572v.282c0 3.979-.285 7.997-.849 11.939-.021.147-.281.149-.303 0-.561-3.929-.846-7.933-.848-11.904.665-.117 1.332-.221 2-.317zm-10.082 2.273c-.117 2.821-.368 5.656-.767 8.448-.021.15-.281.15-.303 0-.373-2.616-.611-5.275-.737-7.92.087-.027.171-.061.259-.086zm36.54 23.079h-34.917c-6.364 0-11.542-5.178-11.542-11.541 0-4.309 2.439-8.212 6.143-10.186.139 2.467.378 4.942.726 7.378.15 1.055 1.067 1.85 2.132 1.85 1.064 0 1.98-.795 2.131-1.85.439-3.074.707-6.199.812-9.303 1.345-.377 2.7-.711 4.065-.998.019 3.938.304 7.906.861 11.8.15 1.054 1.067 1.848 2.132 1.848 1.064 0 1.98-.794 2.131-1.848.576-4.034.868-8.146.868-12.22v-.535c1.329-.148 2.663-.251 4-.314v2.849c0 4.074.292 8.187.869 12.222.15 1.054 1.067 1.848 2.132 1.848 1.064 0 1.98-.794 2.131-1.848.576-4.033.868-8.146.868-12.222v-2.849c1.337.063 2.671.166 4 .314v.535c0 4.074.292 8.187.869 12.222.15 1.054 1.067 1.848 2.132 1.848 1.064 0 1.98-.794 2.131-1.848.556-3.894.841-7.862.861-11.8 1.365.286 2.72.621 4.065.998.105 3.104.373 6.229.812 9.303.15 1.055 1.067 1.85 2.131 1.85s1.981-.795 2.131-1.85c.348-2.436.587-4.911.726-7.378 3.703 1.972 6.142 5.875 6.142 10.184 0 6.363-5.178 11.541-11.542 11.541z"/></g></svg>