<?xml version="1.0" encoding="utf-8"?>
<!-- Generator: Adobe Illustrator 25.0.0, SVG Export Plug-In . SVG Version: 6.00 Build 0)  -->
<svg version="1.1" id="레이어_1" xmlns="http://www.w3.org/2000/svg" xmlns:xlink="http://www.w3.org/1999/xlink" x="0px"
	 y="0px" viewBox="0 0 496 496" style="enable-background:new 0 0 496 496;" xml:space="preserve">
<style type="text/css">
	.st0{fill:#F6DFC1;}
	.st1{fill:#F18B24;}
</style>
<circle class="st0" cx="364.1" cy="364.8" r="125"/>
<path class="st1" d="M480.4,72.8H17.8c-4.3,0-7.7,3.5-7.7,7.7v308.4c0,4.3,3.4,7.7,7.7,7.7h23.1v23.1c0,4.3,3.4,7.7,7.7,7.7h46.3
	c4.3,0,7.7-3.5,7.7-7.7v-23.1h293v23.1c0,4.3,3.4,7.7,7.7,7.7h46.3c4.3,0,7.7-3.5,7.7-7.7v-23.1h23.1c4.3,0,7.7-3.5,7.7-7.7V80.5
	C488.1,76.3,484.6,72.8,480.4,72.8z M25.5,88.2H357v293H25.5V88.2z M87.2,412H56.3v-15.4h30.8V412z M441.8,412H411v-15.4h30.8V412z
	 M472.7,381.2H372.4v-293h100.2V381.2z"/>
<path class="st1" d="M395.6,149.9h54c4.3,0,7.7-3.5,7.7-7.7v-30.8c0-4.3-3.4-7.7-7.7-7.7h-54c-4.3,0-7.7,3.5-7.7,7.7v30.8
	C387.9,146.5,391.3,149.9,395.6,149.9z M403.3,119.1h38.5v15.4h-38.5V119.1z"/>
<path class="st1" d="M428,304c19.8,0,36-16.2,36-36s-16.2-36-36-36s-36,16.2-36,36S408.2,304,428,304z M428,248c11,0,20,9,20,20
	s-9,20-20,20s-20-9-20-20S417,248,428,248z"/>
<path class="st1" d="M418.7,188.5c0,12.8,10.4,23.1,23.1,23.1s23.1-10.4,23.1-23.1s-10.4-23.1-23.1-23.1S418.7,175.7,418.7,188.5z
	 M449.5,188.5c0,4.2-3.5,7.7-7.7,7.7s-7.7-3.5-7.7-7.7s3.5-7.7,7.7-7.7S449.5,184.2,449.5,188.5z"/>
<path class="st1" d="M400,368h56c4.4,0,8-3.6,8-8v-32c0-4.4-3.6-8-8-8h-56c-4.4,0-8,3.6-8,8v32C392,364.4,395.6,368,400,368z
	 M408,336h40v16h-40V336z"/>
<path class="st1" d="M333.9,103.7H48.6c-4.3,0-7.7,3.5-7.7,7.7v246.7c0,4.3,3.4,7.7,7.7,7.7h285.3c4.3,0,7.7-3.5,7.7-7.7V111.4
	C341.6,107.1,338.2,103.7,333.9,103.7z M326.2,119.1v38.5H56.3v-38.5H326.2z M326.2,296.4H56.3V173h269.8V296.4z M56.3,350.4v-38.5
	h269.8v38.5H56.3z"/>
</svg>
