<?xml version="1.0" encoding="utf-8"?>
<!-- Generator: Adobe Illustrator 25.0.0, SVG Export Plug-In . SVG Version: 6.00 Build 0)  -->
<svg version="1.1" id="Capa_1" xmlns="http://www.w3.org/2000/svg" xmlns:xlink="http://www.w3.org/1999/xlink" x="0px" y="0px"
	 viewBox="0 0 496 496" style="enable-background:new 0 0 496 496;" xml:space="preserve">
<style type="text/css">
	.st0{fill:#F6DFC1;}
	.st1{fill:#F18B24;}
</style>
<circle class="st0" cx="358.5" cy="358.5" r="128"/>
<g>
	<g>
		<g>
			<path class="st1" d="M160.1,306.1v-20.6c25.1-4.2,42.1-28,37.9-53.1c-2.3-13.6-10.5-25.5-22.5-32.4v-44.7c0-4.3-3.4-7.7-7.7-7.7
				h-7.7v-23.1c0-4.3-3.4-7.7-7.7-7.7c-8.5,0-15.4-6.9-15.4-15.4c0-1,0.1-1.9,0.3-2.9c1.2-6.2,6.1-11.1,12.3-12.3
				c8.4-1.6,16.4,4,18,12.3c0.2,0.9,0.3,1.9,0.3,2.9c0,2,0.8,4,2.3,5.4l10,10c10.4,9.9,26.8,9.9,37.2,0l10-10L216.3,96l-10,10
				c-4.3,4.1-11.1,4.1-15.4,0L183,98c-1.9-16.9-17.1-29.1-34-27.2c-16.9,1.9-29.1,17.1-27.2,34c1.4,12.7,10.5,23.2,22.9,26.4v16.4
				H137c-4.3,0-7.7,3.4-7.7,7.7v44.8c-22.1,12.7-29.7,40.9-17,63c6.9,12,18.8,20.2,32.4,22.5v20.6l-82.5,82.4c-3,3-3,7.9,0,10.9
				l84.7,84.7c3,3,7.9,3,10.9,0l84.7-84.7c3-3,3-7.9,0-10.9L160.1,306.1z M144.7,163h15.4v31.5c-5.1-0.9-10.3-0.9-15.4,0V163z
				 M121.6,240c0-17,13.8-30.8,30.8-30.8s30.8,13.8,30.8,30.8s-13.8,30.8-30.8,30.8S121.6,257,121.6,240z M214,406.3l-40.8-40.8
				l-10.9,10.9l40.8,40.8l-50.7,50.7L78.6,394l12.2-12.2l40.8,40.8l10.9-10.9l-40.8-40.8l50.7-50.7l73.8,73.8L214,406.3z"/>
			<path class="st1" d="M427.4,327l-82.5-82.5v-20.6c25.1-4.2,42.1-28,37.9-53.1c-2.3-13.6-10.5-25.5-22.5-32.4V93.7
				c0-4.3-3.4-7.7-7.7-7.7h-7.7V62.9c0-4.3-3.4-7.7-7.7-7.7c-8.5,0-15.4-6.9-15.4-15.4c0-1,0.1-1.9,0.3-2.9
				c1.2-6.2,6.1-11.1,12.3-12.3c8.4-1.6,16.4,4,18,12.3c0.2,0.9,0.3,1.9,0.3,2.9c0,2,0.8,4,2.3,5.4l10,10c10.4,9.9,26.8,9.9,37.2,0
				l10-10l-10.9-10.9l-10,10c-4.3,4.1-11.1,4.1-15.4,0l-7.9-7.9c-1.9-16.9-17.1-29.1-34-27.2s-29.1,17.1-27.2,34
				c1.4,12.7,10.5,23.2,22.9,26.4V86h-7.7c-4.3,0-7.7,3.4-7.7,7.7v44.8c-22.1,12.7-29.7,40.9-17,63c6.9,12,18.8,20.2,32.4,22.5v20.6
				L247.1,327c-3,3-3,7.9,0,10.9l84.7,84.7c3,3,7.9,3,10.9,0l84.7-84.7C430.4,334.9,430.4,330,427.4,327z M329.5,101.4h15.4v31.5
				c-5.1-0.9-10.3-0.9-15.4,0V101.4z M306.4,178.4c0-17,13.8-30.8,30.8-30.8c17,0,30.8,13.8,30.8,30.8s-13.8,30.8-30.8,30.8
				C320.2,209.2,306.4,195.4,306.4,178.4z M398.8,344.7l-40.8-40.8l-10.9,10.9l40.8,40.8l-50.7,50.7l-73.8-73.8l12.2-12.2l40.8,40.8
				l10.9-10.9l-40.8-40.8l50.7-50.7l73.8,73.8L398.8,344.7z"/>
		</g>
	</g>
</g>
</svg>
