<?xml version="1.0" encoding="utf-8"?>
<!-- Generator: Adobe Illustrator 25.0.0, SVG Export Plug-In . SVG Version: 6.00 Build 0)  -->
<svg version="1.1" id="Layer_3" xmlns="http://www.w3.org/2000/svg" xmlns:xlink="http://www.w3.org/1999/xlink" x="0px" y="0px"
	 viewBox="0 0 512 512" style="enable-background:new 0 0 512 512;" xml:space="preserve">
<style type="text/css">
	.st0{fill:#F6DFC1;}
	.st1{fill:#F18B24;}
</style>
<circle class="st0" cx="375.7" cy="373.7" r="128"/>
<path class="st1" d="M493.2,25.9l-7-7C479.3,11.9,469.7,8,460,8s-19.3,3.9-26.1,10.8l-5.2,5.2h-61.5c-17.1,0-33.2,6.7-45.2,18.7
	l-53.7,53.7C244.9,119.8,232,150.9,232,184c0,3.2,1.9,6.2,4.9,7.4c1,0.4,2,0.6,3.1,0.6c2.1,0,4.1-0.8,5.7-2.3L361,74.3
	c1.5-1.5,3.6-2.3,5.7-2.3h14.1l-74.3,74.3l-136,136l-120,120c-0.7,0.7-1.3,1.6-1.7,2.5l0,0l-0.1,0.1c0,0,0,0,0,0l-23.9,55.8
	c-1.3,3-0.6,6.5,1.7,8.8l2.3,2.3l-18.3,18.3l11.3,11.3L40,483.3l2.3,2.3c1.5,1.5,3.6,2.3,5.7,2.3c1.1,0,2.1-0.2,3.2-0.6l55.8-23.9
	c0,0,0,0,0,0l0.1-0.1l0,0c0.9-0.4,1.8-0.9,2.5-1.7l120-120l136-136L493.2,78.1C500.1,71.3,504,61.7,504,52S500.1,32.7,493.2,25.9
	L493.2,25.9z M429.7,98.3c-1.5-1.5-3.5-2.3-5.7-2.3h-44.7L416,59.3L452.7,96L440,108.7L429.7,98.3z M428.7,120L384,164.7L347.3,128
	l16-16h57.4L428.7,120z M366.6,56c-6.4,0-12.4,2.5-17,7l-99.5,99.5c4.1-20.6,14.2-39.6,29.5-54.8l53.7-53.7
	C342.3,45,354.4,40,367.2,40h45.5l-16,16L366.6,56z M224,324.7L211.3,312L336,187.3l12.7,12.7L224,324.7z M200,300.7L187.3,288
	L312,163.3l12.7,12.7L200,300.7z M49.8,470.5l-8.3-8.3L58.7,422L90,453.3L49.8,470.5z M104,444.7L67.3,408L176,299.3l36.7,36.7
	L104,444.7z M360,188.7L323.3,152l12.7-12.7l36.7,36.7L360,188.7z M481.9,66.8L464,84.7L427.3,48l17.9-17.9c7.8-7.8,21.8-7.8,29.7,0
	l7,7c3.9,3.9,6.1,9.3,6.1,14.8S485.8,62.9,481.9,66.8L481.9,66.8z"/>
</svg>
