<?xml version="1.0" encoding="utf-8"?>
<!-- Generator: Adobe Illustrator 25.0.0, SVG Export Plug-In . SVG Version: 6.00 Build 0)  -->
<svg version="1.1" id="Capa_1" xmlns="http://www.w3.org/2000/svg" xmlns:xlink="http://www.w3.org/1999/xlink" x="0px" y="0px"
	 viewBox="0 0 496 496" style="enable-background:new 0 0 496 496;" xml:space="preserve">
<style type="text/css">
	.st0{fill:#F6DFC1;}
	.st1{fill:#F18B24;}
</style>
<circle class="st0" cx="359" cy="358.2" r="128"/>
<g>
	<g>
		<path class="st1" d="M211.7,302.3V156.1c0-4.2-3.4-7.7-7.7-7.7h-7.7V33.7c0-2-0.8-4-2.2-5.4L178.9,13c-3-3-7.8-3-10.8,0
			l-45.9,45.9c-1.4,1.4-2.2,3.4-2.2,5.4v84.2h-7.7c-4.2,0-7.7,3.4-7.7,7.7v146.2C86.8,306,74,321.6,74,339.8v137.7
			c0,4.2,3.4,7.7,7.7,7.7h153c4.2,0,7.7-3.4,7.7-7.7V339.8C242.3,321.6,229.5,306,211.7,302.3z M135.2,67.5l38.3-38.3l7.7,7.7v111.6
			h-45.9C135.2,148.5,135.2,67.5,135.2,67.5z M119.9,163.8h76.5v137.7h-45.9V179.1h-15.3v122.4h-15.3
			C119.9,301.5,119.9,163.8,119.9,163.8z M89.3,339.8c0-12.7,10.3-23,23-23h84.2V424H89.3C89.3,424,89.3,339.8,89.3,339.8z
			 M227,469.9H89.3v-30.6H227V469.9z M227,424h-15.3V318.3c9.1,3.2,15.3,11.9,15.3,21.5V424z"/>
	</g>
</g>
<g>
	<g>
		<path class="st1" d="M104.6,355.1v30.6h15.3v-30.6c0-4.2,3.4-7.7,7.7-7.7v-15.3C114.9,332.1,104.6,342.4,104.6,355.1z"/>
	</g>
</g>
<g>
	<g>
		<path class="st1" d="M395.4,179.1H288.3c-16.9,0-30.6,13.7-30.6,30.6v267.8c0,4.2,3.4,7.7,7.7,7.7h153c4.2,0,7.7-3.4,7.7-7.7
			V209.7C426,192.8,412.3,179.1,395.4,179.1z M273,209.7c0-8.5,6.9-15.3,15.3-15.3h91.8V424H273V209.7z M410.7,469.9H273v-30.6
			h137.7V469.9z M410.7,424h-15.3V194.4c8.5,0,15.3,6.9,15.3,15.3V424z"/>
	</g>
</g>
</svg>
