<?xml version="1.0" encoding="utf-8"?>
<!-- Generator: Adobe Illustrator 25.0.0, SVG Export Plug-In . SVG Version: 6.00 Build 0)  -->
<svg version="1.1" id="Layer_3" xmlns="http://www.w3.org/2000/svg" xmlns:xlink="http://www.w3.org/1999/xlink" x="0px" y="0px"
	 viewBox="0 0 512 512" style="enable-background:new 0 0 512 512;" xml:space="preserve">
<style type="text/css">
	.st0{fill:#F6DFC1;}
	.st1{fill:#F18B24;}
</style>
<circle class="st0" cx="376.5" cy="376.5" r="128"/>
<path class="st1" d="M425.4,251.5l-3.4-1l17.6-17.6c42.2-42.2,42.2-111,0-153.2c-34-34-87.2-41.5-129.2-18.1l-23.6,13.1
	c-42.4,23.6-81.3,52.9-115.6,87.2c-25.8,25.8-48.9,54.4-68.7,85l-15.9,4.5C40.3,264.7,8,307.6,8,355.7C8,415.4,56.6,464,116.3,464
	h279.4c59.7,0,108.3-48.6,108.3-108.3C504,307.6,471.7,264.7,425.4,251.5L425.4,251.5z M423.1,267.6c-1,21.2-2.9,42.4-5.9,63.4
	c-0.2,1.2-2.3,1.2-2.4,0c-3.2-22.3-5.2-45-6.1-67.6l12.4,3.5C421.7,267.1,422.4,267.4,423.1,267.6L423.1,267.6z M318.2,75.6
	c0.6-0.4,1.3-0.6,2-1c14.3,15.7,28,32.1,40.6,49c0.4,0.5,0.3,1.2-0.1,1.6c-0.4,0.4-1.1,0.5-1.6,0.1c-18-13.5-35.5-28.1-52.1-43.4
	L318.2,75.6z M292.2,90.1c18.2,17,37.4,33.1,57.2,48c3.1,2.3,6.7,3.4,10.3,3.4c4.4,0,8.9-1.7,12.2-5c6-6,6.7-15.7,1.6-22.5
	c-11.8-15.8-24.6-31-37.8-45.8c32.2-9.9,68.1-1.6,92.5,22.8c36,36,36,94.6,0,130.6l-23.9,23.9l-5-1.4
	c-44.6-12.8-90.8-19.3-137.1-19.9c-14.6-17.8-30.1-35.1-46.3-51.3l-16.1-16.1c7.9-7.2,16-14.2,24.4-20.8l3,3
	c23.1,23.1,48,44.7,74.1,64.2c3.1,2.3,6.7,3.4,10.3,3.4c4.4,0,8.9-1.7,12.2-5c6-6,6.7-15.7,1.6-22.5c-18.9-25.2-39.7-49.2-61.9-71.6
	C272.9,101.3,282.5,95.6,292.2,90.1L292.2,90.1z M328,245.2c5.3,0.8,10.7,1.6,16,2.5c0,31.8-2.3,63.8-6.8,95.2
	c-0.2,1.2-2.3,1.2-2.4,0c-4.5-31.5-6.8-63.7-6.8-95.5V245.2z M248,240.1c2.7,0,5.3-0.1,8-0.1s5.3,0.1,8,0.1v23.3
	c0,31.8-2.3,64-6.8,95.5c-0.2,1.2-2.3,1.2-2.4,0c-4.5-31.5-6.8-63.7-6.8-95.5V240.1z M250.1,116.5c22.4,22.5,43.5,46.7,62.5,72.1
	c0.4,0.5,0.3,1.2-0.1,1.6s-1.1,0.5-1.6,0.1c-25.5-19.1-49.8-40.2-72.3-62.7L237,126C241.4,122.8,245.7,119.6,250.1,116.5z
	 M188.2,167.7l16.5,16.5c12.8,12.8,24.9,26.3,36.7,40.1c-5.5,0.2-11,0.4-16.4,0.7c-10.8-9.5-21.4-19.4-31.6-29.6L177,179.1
	c1.9-1.9,3.6-3.9,5.5-5.8C184.4,171.4,186.3,169.6,188.2,167.7L188.2,167.7z M136.8,229.5c2.3,2.3,4.4,4.6,6.6,6.9
	c-5.8,1.3-11.5,2.6-17.2,4.1c3-4.2,6-8.4,9.1-12.5L136.8,229.5z M162.1,232.6c-4.6-4.9-9.2-9.7-13.9-14.4l-3-3
	c6.7-8.4,13.7-16.5,20.9-24.4l16.1,16.1c6.8,6.8,13.8,13.4,20.9,20C189.3,228.2,175.6,230.1,162.1,232.6z M184,245.2v2.3
	c0,31.8-2.3,64-6.8,95.5c-0.2,1.2-2.3,1.2-2.4,0c-4.5-31.4-6.8-63.5-6.8-95.2C173.3,246.8,178.7,245.9,184,245.2L184,245.2z
	 M103.4,263.4c-0.9,22.6-3,45.3-6.1,67.6c-0.2,1.2-2.3,1.2-2.4,0c-3-20.9-4.9-42.2-5.9-63.4c0.7-0.2,1.4-0.5,2.1-0.7L103.4,263.4z
	 M395.7,448H116.3C65.4,448,24,406.6,24,355.7c0-34.5,19.5-65.7,49.1-81.5c1.1,19.7,3,39.5,5.8,59c1.2,8.4,8.5,14.8,17,14.8
	s15.8-6.4,17-14.8c3.5-24.6,5.6-49.6,6.5-74.4c10.8-3,21.6-5.7,32.5-8c0.2,31.5,2.4,63.2,6.9,94.4c1.2,8.4,8.5,14.8,17,14.8
	s15.8-6.4,17-14.8c4.6-32.3,7-65.2,7-97.8v-4.3c10.6-1.2,21.3-2,32-2.5v22.8c0,32.6,2.3,65.5,7,97.8c1.2,8.4,8.5,14.8,17,14.8
	s15.8-6.4,17-14.8c4.6-32.3,7-65.2,7-97.8v-22.8c10.7,0.5,21.4,1.3,32,2.5v4.3c0,32.6,2.3,65.5,7,97.8c1.2,8.4,8.5,14.8,17,14.8
	s15.8-6.4,17-14.8c4.5-31.2,6.7-62.9,6.9-94.4c10.9,2.3,21.8,5,32.5,8c0.8,24.9,3,49.9,6.5,74.4c1.2,8.4,8.5,14.8,17,14.8
	s15.8-6.4,17-14.8c2.8-19.5,4.7-39.3,5.8-59c29.6,15.8,49.1,47,49.1,81.5C488,406.6,446.6,448,395.7,448L395.7,448z"/>
</svg>
