<?xml version="1.0" encoding="utf-8"?>
<!-- Generator: Adobe Illustrator 25.0.0, SVG Export Plug-In . SVG Version: 6.00 Build 0)  -->
<svg version="1.1" id="Capa_1" xmlns="http://www.w3.org/2000/svg" xmlns:xlink="http://www.w3.org/1999/xlink" x="0px" y="0px"
	 viewBox="0 0 496 496" style="enable-background:new 0 0 496 496;" xml:space="preserve">
<style type="text/css">
	.st0{fill:#F6DFC1;}
	.st1{fill:#F18B24;}
</style>
<circle class="st0" cx="360" cy="358.9" r="128"/>
<g>
	<g>
		<g>
			<path class="st1" d="M485.7,179.6l-77.4-77.4c-1.1-1.1-2.5-1.9-4.1-2.1l-85.2-15.5c-4.2-0.8-8.2,2-9,6.2
				c-0.1,0.5-0.1,0.9-0.1,1.4c0,2.5-0.2,4.9-0.7,7.3l-53.5-13.4v-2.5c20.9-4.3,34.5-24.7,30.2-45.7C281.7,17,261.2,3.5,240.3,7.8
				c-18,3.7-31,19.5-31,37.9h15.5c0-12.8,10.4-23.2,23.2-23.2s23.2,10.4,23.2,23.2S260.8,68.9,248,68.9c-4.3,0-7.7,3.5-7.7,7.7v9.4
				l-53.5,13.4c-0.4-2.4-0.6-4.9-0.7-7.3c0-2.3-1-4.5-2.8-5.9c-1.8-1.5-4.1-2.1-6.3-1.7L91.8,100c-1.5,0.3-3,1-4.1,2.1l-77.4,77.4
				c-3,3-3,7.9,0,10.9l61.9,61.9c3,3,7.9,3,10.9,0l17.8-17.8v51H46.7C25.4,285.6,8.1,302.9,8,324.2c0,12.3,5.8,23.9,15.7,31.2
				C6.6,367.9,2.9,391.9,15.4,409c2.3,3.2,5.1,6,8.3,8.3c-17.2,12.6-20.8,36.8-8.2,54c7.3,9.9,18.9,15.8,31.2,15.7h278.7
				c2.1,0,4-0.8,5.5-2.3l61.9-61.9c1.4-1.5,2.2-3.4,2.2-5.5h0.1V234.7l17.8,17.8c3,3,7.9,3,10.9,0l61.9-61.9
				C488.8,187.5,488.8,182.6,485.7,179.6z M248,100.1l56.3,14.1c-11.7,19.9-33.2,31.8-56.3,31.2c-23.1,0.7-44.6-11.3-56.3-31.2
				L248,100.1z M23.5,324.4c0-12.8,10.4-23.2,23.2-23.2H217c12.8,0,23.2,10.4,23.2,23.2s-10.4,23.2-23.2,23.2H46.7
				C33.9,347.6,23.5,337.2,23.5,324.4z M23.5,386.4c0-12.8,10.4-23.2,23.2-23.2H217c12.8,0,23.2,10.4,23.2,23.2
				c0,12.8-10.4,23.2-23.2,23.2H46.7C33.9,409.6,23.5,399.2,23.5,386.4z M217,471.5h-15.5H46.7c-12.8,0-23.2-10.4-23.2-23.2
				s10.4-23.2,23.2-23.2H217c12.8,0,23.2,10.4,23.2,23.2S229.9,471.5,217,471.5z M333.2,460.6v-35.5h35.5L333.2,460.6z M418.3,236.1
				l-48.7-48.7l-10.9,10.9l21,21v190.3h-54.2c-4.3,0-7.7,3.5-7.7,7.7v54.2h-69.9c12.9-16.7,9.8-40.7-6.9-53.6
				c-0.3-0.2-0.6-0.4-0.8-0.6c17.1-12.5,20.8-36.5,8.3-53.6c-2.3-3.2-5.1-6-8.3-8.3c17.2-12.6,20.8-36.8,8.2-54
				c-7.3-9.9-18.9-15.8-31.2-15.7H116.4v-66.5l21-21l-10.9-10.9l-48.7,48.7l-51-51l70.2-70.2l74.3-13.5
				c5.1,33.6,37.5,59.6,76.7,59.6s71.7-26,76.7-59.6l74.3,13.5l70.3,70.2L418.3,236.1z"/>
			<rect x="39" y="316.7" class="st1" width="185.8" height="15.5"/>
			<rect x="39" y="378.6" class="st1" width="178.1" height="15.5"/>
			<rect x="39" y="440.5" class="st1" width="178.1" height="15.5"/>
		</g>
	</g>
</g>
</svg>
