<?xml version="1.0" encoding="utf-8"?>
<!-- Generator: Adobe Illustrator 25.0.0, SVG Export Plug-In . SVG Version: 6.00 Build 0)  -->
<svg version="1.1" id="Layer_3" xmlns="http://www.w3.org/2000/svg" xmlns:xlink="http://www.w3.org/1999/xlink" x="0px" y="0px"
	 viewBox="0 0 512 512" style="enable-background:new 0 0 512 512;" xml:space="preserve">
<style type="text/css">
	.st0{fill:#F6DFC1;}
	.st1{fill:#F18B24;}
</style>
<circle class="st0" cx="376" cy="376" r="128"/>
<g>
	<path class="st1" d="M504,312c0-13.2-10.8-24-24-24h-32c-13.2,0-24,10.8-24,24c0,10.4,6.7,19.2,16,22.5v1.5c0,4.4-3.6,8-8,8h-16
		v-49.1c13.8-3.6,24-16,24-30.9c0-16-11.9-29.2-27.2-31.5c10.8-29.1-8.2-78.8-48.9-127.3l13.3-13.3c3.2,1.5,6.7,2.4,10.3,2.4
		c6.2,0,12.3-2.3,17-7c9.4-9.4,9.4-24.6,0-33.9l-33.9-33.9c-9.4-9.4-24.6-9.3-33.9,0c-7.4,7.4-8.8,18.3-4.6,27.2L318.6,60
		C261.8,12.3,203.3-5.7,178.2,19.4c-3.1,3.1-3.1,8.2,0,11.3L379.5,232H104c-17.6,0-32,14.4-32,32c0,14.9,10.2,27.3,24,30.9V344H80
		c-4.4,0-8-3.6-8-8v-1.5c9.3-3.3,16-12.1,16-22.5c0-13.2-10.8-24-24-24H32c-13.2,0-24,10.8-24,24c0,10.4,6.7,19.2,16,22.5v9.5
		c0,26.5,21.5,48,48,48h24v56c0,30.9,25.1,56,56,56h208c30.9,0,56-25.1,56-56v-56h24c26.5,0,48-21.5,48-48v-9.5
		C497.3,331.2,504,322.4,504,312L504,312z M347.9,30.7c3.1-3.1,8.2-3.1,11.3,0l33.9,33.9c3.1,3.1,3.1,8.2,0,11.3
		c-3.1,3.1-8.2,3.1-11.3,0L347.9,42C344.8,38.9,344.8,33.8,347.9,30.7z M342.3,59l22.6,22.6l-11.6,11.6c-3.6-3.9-7.2-7.7-11.1-11.6
		s-7.7-7.5-11.6-11.1L342.3,59z M331,92.9c44.2,44.2,79.3,106.6,66.8,134.7L196.3,26.1C224.3,13.6,286.8,48.8,331,92.9z M88,264
		c0-8.8,7.2-16,16-16h304c8.8,0,16,7.2,16,16s-7.2,16-16,16H104C95.2,280,88,272.8,88,264z M32,304h32c4.4,0,8,3.6,8,8s-3.6,8-8,8
		H32c-4.4,0-8-3.6-8-8S27.6,304,32,304z M72,376c-17.6,0-32-14.4-32-32v-8h16c0,13.2,10.8,24,24,24h16v16H72z M360,488H152
		c-22.1,0-40-17.9-40-40V296h288v152C400,470.1,382.1,488,360,488z M440,376h-24v-16h16c13.2,0,24-10.8,24-24h16v8
		C472,361.6,457.6,376,440,376z M480,320h-32c-4.4,0-8-3.6-8-8s3.6-8,8-8h32c4.4,0,8,3.6,8,8S484.4,320,480,320z"/>
	<path class="st1" d="M376,448c0,8.8-7.2,16-16,16v16c17.6,0,32-14.4,32-32V336h-16V448z"/>
	<path class="st1" d="M137.9,165.2c4,4,6.1,9.2,6.1,14.8s-2.2,10.9-6.1,14.8l-15.5,15.5l11.3,11.3l15.5-15.5
		c7-7,10.8-16.3,10.8-26.1s-3.8-19.2-10.8-26.1l-7-7c-4-4-6.1-9.2-6.1-14.8s2.2-10.9,6.1-14.8l15.5-15.5l-11.3-11.3l-15.5,15.5
		c-7,7-10.8,16.3-10.8,26.1s3.8,19.2,10.8,26.1L137.9,165.2z"/>
	<path class="st1" d="M229.7,101.7l-11.3-11.3l-15.5,15.5c-7,7-10.8,16.3-10.8,26.1s3.8,19.2,10.8,26.1l7,7c4,4,6.1,9.2,6.1,14.8
		s-2.2,10.9-6.1,14.8l-15.5,15.5l11.3,11.3l15.5-15.5c7-7,10.8-16.3,10.8-26.1s-3.8-19.2-10.8-26.1l-7-7c-4-4-6.1-9.2-6.1-14.8
		s2.2-10.9,6.1-14.8L229.7,101.7z"/>
</g>
</svg>
