<?xml version="1.0" encoding="iso-8859-1"?>
<!-- Generator: Adobe Illustrator 19.0.0, SVG Export Plug-In . SVG Version: 6.00 Build 0)  -->
<svg version="1.1" id="Capa_1" xmlns="http://www.w3.org/2000/svg" xmlns:xlink="http://www.w3.org/1999/xlink" x="0px" y="0px"
	 viewBox="0 0 496 496" style="enable-background:new 0 0 496 496;" xml:space="preserve">
<g>
	<g>
		<path d="M224,272h-72V144h72c17.673,0,32-14.327,32-32s-14.327-32-32-32h-4.448c2.879-4.843,4.415-10.366,4.448-16
			c0-17.673-14.327-32-32-32h-40V8c0-4.418-3.582-8-8-8h-32c-4.418,0-8,3.582-8,8v24H64c-17.673,0-32,14.327-32,32
			c0.033,5.634,1.569,11.157,4.448,16H32C14.327,80,0,94.327,0,112s14.327,32,32,32h72v128H32c-17.673,0-32,14.327-32,32
			c0,17.673,14.327,32,32,32h4.448c-2.879,4.843-4.415,10.366-4.448,16c0,17.673,14.327,32,32,32h40v24c0,4.418,3.582,8,8,8h32
			c4.418,0,8-3.582,8-8v-24h40c17.673,0,32-14.327,32-32c-0.033-5.634-1.569-11.157-4.448-16H224c17.673,0,32-14.327,32-32
			C256,286.327,241.673,272,224,272z M120,16h16v16h-16V16z M64,48h128c8.837,0,16,7.163,16,16s-7.163,16-16,16H64
			c-8.837,0-16-7.163-16-16S55.163,48,64,48z M32,128c-8.837,0-16-7.163-16-16s7.163-16,16-16h192c8.837,0,16,7.163,16,16
			s-7.163,16-16,16H32z M136,144v128h-16V144H136z M136,400h-16v-16h16V400z M192,368H64c-8.837,0-16-7.163-16-16s7.163-16,16-16
			h128c8.837,0,16,7.163,16,16S200.837,368,192,368z M224,320H32c-8.837,0-16-7.163-16-16s7.163-16,16-16h192
			c8.837,0,16,7.163,16,16S232.837,320,224,320z"/>
	</g>
</g>
<g>
	<g>
		<path d="M464,352h-72V224h72c17.673,0,32-14.327,32-32s-14.327-32-32-32h-4.448c2.879-4.843,4.415-10.366,4.448-16
			c0-17.673-14.327-32-32-32h-40V88c0-4.418-3.582-8-8-8h-32c-4.418,0-8,3.582-8,8v24h-40c-17.673,0-32,14.327-32,32
			c0.033,5.634,1.569,11.157,4.448,16H272c-17.673,0-32,14.327-32,32s14.327,32,32,32h72v128h-72c-17.673,0-32,14.327-32,32
			c0,17.673,14.327,32,32,32h4.448c-2.879,4.843-4.415,10.366-4.448,16c0,17.673,14.327,32,32,32h40v24c0,4.418,3.582,8,8,8h32
			c4.418,0,8-3.582,8-8v-24h40c17.673,0,32-14.327,32-32c-0.033-5.634-1.569-11.157-4.448-16H464c17.673,0,32-14.327,32-32
			C496,366.327,481.673,352,464,352z M360,96h16v16h-16V96z M304,128h128c8.837,0,16,7.163,16,16s-7.163,16-16,16H304
			c-8.837,0-16-7.163-16-16S295.163,128,304,128z M272,208c-8.837,0-16-7.163-16-16s7.163-16,16-16h192c8.837,0,16,7.163,16,16
			s-7.163,16-16,16H272z M376,224v128h-16V224H376z M376,480h-16v-16h16V480z M432,448H304c-8.837,0-16-7.163-16-16s7.163-16,16-16
			h128c8.837,0,16,7.163,16,16S440.837,448,432,448z M464,400H272c-8.837,0-16-7.163-16-16s7.163-16,16-16h192
			c8.837,0,16,7.163,16,16S472.837,400,464,400z"/>
	</g>
</g>
<g>
</g>
<g>
</g>
<g>
</g>
<g>
</g>
<g>
</g>
<g>
</g>
<g>
</g>
<g>
</g>
<g>
</g>
<g>
</g>
<g>
</g>
<g>
</g>
<g>
</g>
<g>
</g>
<g>
</g>
</svg>
