<?xml version="1.0" encoding="iso-8859-1"?>
<!-- Generator: Adobe Illustrator 19.0.0, SVG Export Plug-In . SVG Version: 6.00 Build 0)  -->
<svg version="1.1" id="Capa_1" xmlns="http://www.w3.org/2000/svg" xmlns:xlink="http://www.w3.org/1999/xlink" x="0px" y="0px"
	 viewBox="0 0 496.101 496.101" style="enable-background:new 0 0 496.101 496.101;" xml:space="preserve">
<polyline style="fill:#864C38;" points="136.051,200.101 136.051,152.101 168.051,152.101 168.051,200.101 "/>
<path d="M176.051,200.101h-16v-40h-16v40h-16v-48c0-4.8,3.2-8,8-8h32c4.8,0,8,3.2,8,8V200.101z"/>
<polyline style="fill:#D57C5F;" points="328.051,136.101 328.051,88.101 360.051,88.101 360.051,136.101 "/>
<path d="M368.051,136.101h-16v-40h-16v40h-16v-48c0-4.8,3.2-8,8-8h32c4.8,0,8,3.2,8,8V136.101z"/>
<rect x="89.684" y="337.702" transform="matrix(-0.7071 0.7071 -0.7071 -0.7071 542.5372 575.4774)" style="fill:#D57C5F;" width="124.799" height="124.799"/>
<path d="M152.051,496.101c-2.4,0-4-0.8-5.6-2.4l-88-88c-3.2-3.2-3.2-8,0-11.2l88-88c3.2-3.2,8-3.2,11.2,0l88,88
	c3.2,3.2,3.2,8,0,11.2l-88,88C156.051,495.301,154.451,496.101,152.051,496.101z M75.251,400.101l76.8,76.8l76.8-76.8l-76.8-76.8
	L75.251,400.101z"/>
<circle style="fill:#D57C5F;" cx="152.051" cy="240.101" r="40"/>
<path d="M152.051,288.101c-26.4,0-48-21.6-48-48s21.6-48,48-48s48,21.6,48,48S178.451,288.101,152.051,288.101z M152.051,208.101
	c-17.6,0-32,14.4-32,32s14.4,32,32,32s32-14.4,32-32S169.651,208.101,152.051,208.101z"/>
<rect x="104.33" y="366.381" transform="matrix(-0.7071 0.7071 -0.7071 -0.7071 474.8714 604.0632)" width="16" height="67.999"/>
<rect x="184.33" y="366.381" transform="matrix(-0.7071 0.7071 -0.7071 -0.7071 611.4399 547.4946)" width="16" height="67.999"/>
<path d="M160.051,152.101h-16v-24.8c-16.8-4.8-27.2-21.6-23.2-39.2c4.8-16.8,21.6-27.2,39.2-23.2c12.8,3.2,22.4,14.4,24,27.2l8,8
	c4.8,4,11.2,4,16,0l10.4-10.4l11.2,11.2l-10.4,11.2c-11.2,10.4-28,10.4-38.4,0l-10.4-10.4c-1.6-1.6-2.4-3.2-2.4-5.6
	c0-8.8-7.2-16-16-16c-0.8,0-1.6,0-3.2,0c-6.4,1.6-11.2,6.4-12.8,12.8c-1.6,8.8,4,16.8,12.8,18.4c0.8,0,1.6,0,3.2,0c4.8,0,8,3.2,8,8
	V152.101z"/>
<rect x="144.051" y="280.101" width="16" height="32"/>
<rect x="281.649" y="273.701" transform="matrix(-0.7071 0.7071 -0.7071 -0.7071 824.9857 330.4802)" style="fill:#864C38;" width="124.799" height="124.799"/>
<path d="M344.051,432.101c-2.4,0-4-0.8-5.6-2.4l-88-88c-3.2-3.2-3.2-8,0-11.2l88-88c3.2-3.2,8-3.2,11.2,0l88,88
	c3.2,3.2,3.2,8,0,11.2l-88,88C348.051,431.301,346.451,432.101,344.051,432.101z M267.251,336.101l76.8,76.8l76.8-76.8l-76.8-76.8
	L267.251,336.101z"/>
<circle style="fill:#864C38;" cx="344.051" cy="176.101" r="40"/>
<path d="M344.051,224.101c-26.4,0-48-21.6-48-48s21.6-48,48-48s48,21.6,48,48S370.451,224.101,344.051,224.101z M344.051,144.101
	c-17.6,0-32,14.4-32,32s14.4,32,32,32s32-14.4,32-32S361.651,144.101,344.051,144.101z"/>
<rect x="296.327" y="302.371" transform="matrix(-0.7071 0.7071 -0.7071 -0.7071 757.3688 359.0297)" width="16" height="67.999"/>
<rect x="376.359" y="302.363" transform="matrix(-0.7071 0.7071 -0.7071 -0.7071 893.9863 302.4249)" width="16" height="67.999"/>
<path d="M352.051,88.101h-16v-24.8c-16.8-4.8-27.2-21.6-23.2-39.2s21.6-27.2,39.2-23.2c12.8,3.2,22.4,14.4,24,27.2l8,8
	c4.8,4,11.2,4,16,0l10.4-10.4l11.2,11.2l-10.4,11.2c-11.2,10.4-28,10.4-38.4,0l-10.4-10.4c-1.6-1.6-2.4-3.2-2.4-5.6
	c0-8.8-7.2-16-16-16c-0.8,0-1.6,0-3.2,0c-6.4,1.6-11.2,6.4-12.8,12.8c-1.6,8.8,4,16.8,12.8,18.4c0.8,0,1.6,0,3.2,0c4.8,0,8,3.2,8,8
	V88.101z"/>
<rect x="336.051" y="216.101" width="16" height="32"/>
<g>
</g>
<g>
</g>
<g>
</g>
<g>
</g>
<g>
</g>
<g>
</g>
<g>
</g>
<g>
</g>
<g>
</g>
<g>
</g>
<g>
</g>
<g>
</g>
<g>
</g>
<g>
</g>
<g>
</g>
</svg>
