<?xml version="1.0" encoding="iso-8859-1"?>
<!-- Generator: Adobe Illustrator 19.0.0, SVG Export Plug-In . SVG Version: 6.00 Build 0)  -->
<svg version="1.1" id="Capa_1" xmlns="http://www.w3.org/2000/svg" xmlns:xlink="http://www.w3.org/1999/xlink" x="0px" y="0px"
	 viewBox="0 0 495.99 495.99" style="enable-background:new 0 0 495.99 495.99;" xml:space="preserve">
<g>
	<g>
		<g>
			<path d="M159.995,308.68v-21.408c26.104-4.362,43.728-29.06,39.366-55.163c-2.364-14.144-10.937-26.485-23.366-33.637v-46.48
				c0-4.418-3.582-8-8-8h-8v-24c0-4.418-3.582-8-8-8c-8.837,0.008-16.006-7.15-16.014-15.986c-0.001-1,0.092-1.999,0.278-2.982
				c1.263-6.475,6.325-11.537,12.8-12.8c8.687-1.622,17.043,4.106,18.664,12.792c0.183,0.981,0.274,1.978,0.272,2.976
				c0,2.122,0.844,4.156,2.344,5.656l10.344,10.344c10.814,10.301,27.81,10.301,38.624,0l10.344-10.344l-11.312-11.312
				l-10.344,10.344c-4.482,4.263-11.518,4.263-16,0l-8.184-8.192c-1.941-17.566-17.755-30.233-35.321-28.292
				c-17.566,1.941-30.233,17.755-28.292,35.321c1.46,13.209,10.931,24.141,23.797,27.467v17.008h-8c-4.418,0-8,3.582-8,8v46.496
				c-22.939,13.199-30.836,42.495-17.637,65.434c7.151,12.429,19.493,21.003,33.637,23.366v21.408l-85.656,85.64
				c-3.123,3.124-3.123,8.188,0,11.312l88,88c3.124,3.123,8.188,3.123,11.312,0l88-88c3.123-3.124,3.123-8.188,0-11.312
				L159.995,308.68z M143.995,159.992h16v32.72c-5.29-0.96-10.71-0.96-16,0V159.992z M119.995,239.992c0-17.673,14.327-32,32-32
				s32,14.327,32,32s-14.327,32-32,32S119.995,257.665,119.995,239.992z M215.995,412.68l-42.344-42.344l-11.312,11.312
				l42.344,42.344l-52.688,52.688l-76.688-76.688l12.688-12.688l42.344,42.344l11.312-11.312l-42.344-42.344l52.688-52.688
				l76.688,76.688L215.995,412.68z"/>
			<path d="M437.651,330.336l-85.656-85.656v-21.408c26.104-4.362,43.728-29.06,39.366-55.163
				c-2.364-14.144-10.937-26.485-23.366-33.637v-46.48c0-4.418-3.582-8-8-8h-8v-24c0-4.418-3.582-8-8-8
				c-8.837,0.008-16.006-7.15-16.014-15.986c-0.001-1,0.092-1.999,0.278-2.982c1.263-6.475,6.325-11.537,12.8-12.8
				c8.686-1.622,17.043,4.106,18.664,12.792c0.183,0.981,0.274,1.978,0.272,2.976c0,2.122,0.844,4.156,2.344,5.656l10.344,10.344
				c10.814,10.301,27.81,10.301,38.624,0l10.344-10.344l-11.312-11.312L399.995,36.68c-4.482,4.263-11.518,4.263-16,0l-8.184-8.192
				C373.87,10.922,358.056-1.745,340.49,0.196c-17.566,1.941-30.233,17.755-28.292,35.321c1.46,13.209,10.931,24.141,23.797,27.467
				v17.008h-8c-4.418,0-8,3.582-8,8v46.496c-22.939,13.199-30.836,42.495-17.637,65.434c7.151,12.429,19.493,21.003,33.637,23.366
				v21.408l-85.656,85.64c-3.123,3.124-3.123,8.188,0,11.312l88,88c3.124,3.123,8.188,3.123,11.312,0l88-88
				C440.774,338.524,440.774,333.46,437.651,330.336z M335.995,95.992h16v32.72c-5.29-0.96-10.71-0.96-16,0V95.992z
				 M311.995,175.992c0-17.673,14.327-32,32-32c17.673,0,32,14.327,32,32s-14.327,32-32,32
				C326.322,207.992,311.995,193.665,311.995,175.992z M407.995,348.68l-42.344-42.344l-11.312,11.312l42.344,42.344l-52.688,52.688
				l-76.688-76.688l12.688-12.688l42.344,42.344l11.312-11.312l-42.344-42.344l52.688-52.688l76.688,76.688L407.995,348.68z"/>
		</g>
	</g>
</g>
<g>
</g>
<g>
</g>
<g>
</g>
<g>
</g>
<g>
</g>
<g>
</g>
<g>
</g>
<g>
</g>
<g>
</g>
<g>
</g>
<g>
</g>
<g>
</g>
<g>
</g>
<g>
</g>
<g>
</g>
</svg>
