<?xml version="1.0" encoding="iso-8859-1"?>
<!-- Generator: Adobe Illustrator 19.0.0, SVG Export Plug-In . SVG Version: 6.00 Build 0)  -->
<svg version="1.1" id="Capa_1" xmlns="http://www.w3.org/2000/svg" xmlns:xlink="http://www.w3.org/1999/xlink" x="0px" y="0px"
	 viewBox="0 0 495.998 495.998" style="enable-background:new 0 0 495.998 495.998;" xml:space="preserve">
<g>
	<g>
		<path d="M207.999,304.798v-152.8c0-4.418-3.582-8-8-8h-8v-120c0-2.122-0.844-4.156-2.344-5.656l-16-16
			c-3.124-3.123-8.188-3.123-11.312,0l-48,48c-1.5,1.5-2.344,3.534-2.344,5.656v88h-8c-4.418,0-8,3.582-8,8v152.8
			c-18.611,3.827-31.976,20.199-32,39.2v144c0,4.418,3.582,8,8,8h160c4.418,0,8-3.582,8-8v-144
			C239.975,324.997,226.61,308.626,207.999,304.798z M127.999,59.31l40-40l8,8v116.688h-48V59.31z M111.999,159.998h80v144h-48v-128
			h-16v128h-16V159.998z M79.999,343.998c0-13.255,10.745-24,24-24h88v112h-112V343.998z M223.999,479.998h-144v-32h144V479.998z
			 M223.999,431.998h-16V321.47c9.555,3.378,15.958,12.394,16,22.528V431.998z"/>
	</g>
</g>
<g>
	<g>
		<path d="M95.999,359.998v32h16v-32c0-4.418,3.582-8,8-8v-16C106.744,335.998,95.999,346.743,95.999,359.998z"/>
	</g>
</g>
<g>
	<g>
		<path d="M399.999,175.998h-112c-17.673,0-32,14.327-32,32v280c0,4.418,3.582,8,8,8h160c4.418,0,8-3.582,8-8v-280
			C431.999,190.325,417.672,175.998,399.999,175.998z M271.999,207.998c0-8.837,7.163-16,16-16h96v240h-112V207.998z
			 M415.999,479.998h-144v-32h144V479.998z M415.999,431.998h-16v-240c8.837,0,16,7.163,16,16V431.998z"/>
	</g>
</g>
<g>
</g>
<g>
</g>
<g>
</g>
<g>
</g>
<g>
</g>
<g>
</g>
<g>
</g>
<g>
</g>
<g>
</g>
<g>
</g>
<g>
</g>
<g>
</g>
<g>
</g>
<g>
</g>
<g>
</g>
</svg>
