<svg height="496pt" viewBox="0 -64 496 496" width="496pt" xmlns="http://www.w3.org/2000/svg"><g fill="#8c6573"><path d="m408 328h48v32h-48zm0 0"/><path d="m40 328h48v32h-48zm0 0"/><path d="m8 8h480v320h-480zm0 0"/></g><path d="m368 8h120v320h-120zm0 0" fill="#a6818f"/><path d="m368 8h96v320h-96zm0 0" fill="#bf99a7"/><path d="m400 40h56v32h-56zm0 0" fill="#ff8c94"/><path d="m400 40h32v32h-32zm0 0" fill="#ffaba6"/><path d="m400 264h56v32h-56zm0 0" fill="#ff8c94"/><path d="m400 264h32v32h-32zm0 0" fill="#ffaba6"/><path d="m456 204c0 15.464844-12.535156 28-28 28s-28-12.535156-28-28 12.535156-28 28-28 28 12.535156 28 28zm0 0" fill="#ff8c94"/><path d="m432 204c0-13.917969-7.164062-25.199219-16-25.199219s-16 11.28125-16 25.199219 7.164062 25.199219 16 25.199219 16-11.28125 16-25.199219zm0 0" fill="#ffaba6"/><path d="m464 120c0 8.835938-7.164062 16-16 16s-16-7.164062-16-16 7.164062-16 16-16 16 7.164062 16 16zm0 0" fill="#ff8c94"/><path d="m456 304h-56c-4.425781 0-8-3.585938-8-8v-32c0-4.414062 3.574219-8 8-8h56c4.425781 0 8 3.585938 8 8v32c0 4.414062-3.574219 8-8 8zm-48-16h40v-16h-40zm0 0"/><path d="m40 40h296v256h-296zm0 0" fill="#a6818f"/><path d="m40 40h264v256h-264zm0 0" fill="#bf99a7"/><path d="m88 368h-48c-4.425781 0-8-3.585938-8-8v-32h16v24h32v-24h16v32c0 4.414062-3.574219 8-8 8zm0 0"/><path d="m456 368h-48c-4.425781 0-8-3.585938-8-8v-32h16v24h32v-24h16v32c0 4.414062-3.574219 8-8 8zm0 0"/><path d="m488 336h-480c-4.425781 0-8-3.585938-8-8v-320c0-4.414062 3.574219-8 8-8h480c4.425781 0 8 3.585938 8 8v320c0 4.414062-3.574219 8-8 8zm-472-16h464v-304h-464zm0 0"/><path d="m360 8h16v320h-16zm0 0"/><path d="m336 304h-296c-4.425781 0-8-3.585938-8-8v-256c0-4.414062 3.574219-8 8-8h296c4.425781 0 8 3.585938 8 8v256c0 4.414062-3.574219 8-8 8zm-288-16h280v-240h-280zm0 0"/><path d="m40 96h296v144h-296zm0 0" fill="#ccc"/><path d="m40 96h248v144h-248zm0 0" fill="#ddd"/><path d="m456 80h-56c-4.425781 0-8-3.585938-8-8v-32c0-4.414062 3.574219-8 8-8h56c4.425781 0 8 3.585938 8 8v32c0 4.414062-3.574219 8-8 8zm-48-16h40v-16h-40zm0 0"/><path d="m428 240c-19.847656 0-36-16.152344-36-36s16.152344-36 36-36 36 16.152344 36 36-16.152344 36-36 36zm0-56c-11.03125 0-20 8.976562-20 20s8.96875 20 20 20 20-8.976562 20-20-8.96875-20-20-20zm0 0"/><path d="m448 144c-13.230469 0-24-10.769531-24-24s10.769531-24 24-24 24 10.769531 24 24-10.769531 24-24 24zm0-32c-4.414062 0-8 3.59375-8 8s3.585938 8 8 8 8-3.59375 8-8-3.585938-8-8-8zm0 0"/><path d="m336 248h-296c-4.425781 0-8-3.585938-8-8v-144c0-4.414062 3.574219-8 8-8h296c4.425781 0 8 3.585938 8 8v144c0 4.414062-3.574219 8-8 8zm-288-16h280v-128h-280zm0 0"/></svg>