<svg height="496pt" viewBox="0 -64 496 496" width="496pt" xmlns="http://www.w3.org/2000/svg"><path d="m488 0h-480c-4.425781 0-8 3.585938-8 8v320c0 4.414062 3.574219 8 8 8h24v24c0 4.414062 3.574219 8 8 8h48c4.425781 0 8-3.585938 8-8v-24h304v24c0 4.414062 3.574219 8 8 8h48c4.425781 0 8-3.585938 8-8v-24h24c4.425781 0 8-3.585938 8-8v-320c0-4.414062-3.574219-8-8-8zm-472 16h344v304h-344zm64 336h-32v-16h32zm368 0h-32v-16h32zm32-32h-104v-304h104zm0 0"/><path d="m400 80h56c4.425781 0 8-3.585938 8-8v-32c0-4.414062-3.574219-8-8-8h-56c-4.425781 0-8 3.585938-8 8v32c0 4.414062 3.574219 8 8 8zm8-32h40v16h-40zm0 0"/><path d="m428 240c19.847656 0 36-16.152344 36-36s-16.152344-36-36-36-36 16.152344-36 36 16.152344 36 36 36zm0-56c11.03125 0 20 8.976562 20 20s-8.96875 20-20 20-20-8.976562-20-20 8.96875-20 20-20zm0 0"/><path d="m424 120c0 13.230469 10.769531 24 24 24s24-10.769531 24-24-10.769531-24-24-24-24 10.769531-24 24zm32 0c0 4.40625-3.585938 8-8 8s-8-3.59375-8-8 3.585938-8 8-8 8 3.59375 8 8zm0 0"/><path d="m400 304h56c4.425781 0 8-3.585938 8-8v-32c0-4.414062-3.574219-8-8-8h-56c-4.425781 0-8 3.585938-8 8v32c0 4.414062 3.574219 8 8 8zm8-32h40v16h-40zm0 0"/><path d="m336 32h-296c-4.425781 0-8 3.585938-8 8v256c0 4.414062 3.574219 8 8 8h296c4.425781 0 8-3.585938 8-8v-256c0-4.414062-3.574219-8-8-8zm-8 16v40h-280v-40zm0 184h-280v-128h280zm-280 56v-40h280v40zm0 0"/></svg>