<svg id="Layer_3" enable-background="new 0 0 64 64" height="512" viewBox="0 0 64 64" width="512" xmlns="http://www.w3.org/2000/svg"><g><path d="m43 1h-4-14c-.315 0-.611.148-.8.4l-3 4c-.299.398-.259.955.093 1.307l.171.171c1.444 1.444 2.313 3.309 2.497 5.318-1.142.425-1.961 1.516-1.961 2.804v2.184c-1.161.414-2 1.514-2 2.816v38c0 2.757 2.243 5 5 5h13c2.757 0 5-2.243 5-5v-17.05c0-3.459-1.347-6.711-3.793-9.157-2.068-2.068-3.207-4.818-3.207-7.743v-4.05c0-1.302-.839-2.402-2-2.816v-2.184c0-1.273-.799-2.356-1.92-2.791.278-1.727 1.427-3.165 2.996-3.822.311 2.967 1.614 5.717 3.752 7.856l.464.464 1.414-1.414-.464-.464c-1.852-1.854-2.964-4.25-3.193-6.829h1.951 4c.552 0 1-.448 1-1v-5c0-.552-.448-1-1-1zm-12 13c.551 0 1 .449 1 1v2h-8v-2c0-.551.449-1 1-1zm6.793 19.207c2.068 2.068 3.207 4.818 3.207 7.743v17.05c0 1.654-1.346 3-3 3h-13c-1.654 0-3-1.346-3-3v-38c0-.551.449-1 1-1h10c.551 0 1 .449 1 1v4.05c0 3.459 1.347 6.711 3.793 9.157zm.207-27.207h-1c-3.519 0-6.432 2.613-6.92 6h-4.127c-.209-2.262-1.126-4.376-2.644-6.079l2.191-2.921h12.5zm4 0h-2v-3h2z"/><path d="m29 35c-2.757 0-5 2.243-5 5v12c0 2.757 2.243 5 5 5h5c2.757 0 5-2.243 5-5v-12c0-2.757-2.243-5-5-5zm-3 16v-10h11v10zm8 4h-5c-1.302 0-2.402-.839-2.816-2h10.631c-.413 1.161-1.513 2-2.815 2zm2.816-16h-10.632c.414-1.161 1.514-2 2.816-2h5c1.302 0 2.402.839 2.816 2z"/><path d="m24 21h8v2h-8z"/><path d="m26 25h4v2h-4z"/></g></svg>